M48
; DRILL file {KiCad 8.0.6} date 2024-11-05T12:51:26-0600
; FORMAT={-:-/ absolute / inch / decimal}
; #@! TF.CreationDate,2024-11-05T12:51:26-06:00
; #@! TF.GenerationSoftware,Kicad,Pcbnew,8.0.6
; #@! TF.FileFunction,Plated,1,2,PTH
FMAT,2
INCH
; #@! TA.AperFunction,Plated,PTH,ViaDrill
T1C0.0118
; #@! TA.AperFunction,Plated,PTH,ComponentDrill
T2C0.0276
; #@! TA.AperFunction,Plated,PTH,ComponentDrill
T3C0.0287
; #@! TA.AperFunction,Plated,PTH,ComponentDrill
T4C0.0394
; #@! TA.AperFunction,Plated,PTH,ComponentDrill
T5C0.0508
%
G90
G05
T1
X1.7421Y-0.935
X1.874Y-0.8898
X2.3071Y-2.2283
X2.3071Y-2.622
X2.7165Y-1.2283
X2.7165Y-1.2756
X2.7165Y-1.3228
X2.7795Y-0.9825
X2.8504Y-2.8425
X2.8722Y-2.937
X2.888Y-3.0315
X2.8976Y-0.937
X2.9134Y-0.9685
X2.9352Y-1.3247
X2.937Y-1.0079
X2.937Y-3.0787
X2.9528Y-3.0236
X2.9606Y-2.9528
X3.0906Y-1.4567
X3.1299Y-1.4665
X3.1791Y-1.4665
X3.2126Y-1.0
X3.2126Y-1.0472
X3.2126Y-1.0945
X3.2126Y-1.1417
X3.4724Y-0.9213
X3.5906Y-1.1353
X3.6142Y-1.1732
X3.6457Y-1.2126
X3.6516Y-1.3681
X3.6614Y-4.0256
X3.6673Y-3.248
X3.6673Y-3.6122
X3.7205Y-3.8287
X3.75Y-3.5335
X3.7795Y-3.1398
X3.9134Y-0.8661
X3.937Y-0.8976
X3.9606Y-0.9291
X4.0748Y-1.1319
X4.0748Y-1.3189
X4.0846Y-1.378
X4.1142Y-1.1122
X4.1142Y-1.4075
X4.1236Y-1.1611
X4.1437Y-1.2106
X4.1437Y-1.3583
X4.4016Y-0.9291
X4.5039Y-1.2047
X4.5197Y-1.2441
X4.5433Y-1.2835
X4.5669Y-1.3681
X4.5768Y-3.2776
X4.5768Y-3.6319
X4.5768Y-3.9764
X4.6358Y-3.9173
X4.6654Y-3.5433
X4.6949Y-3.1201
X4.8898Y-0.8425
X4.9291Y-0.8661
X4.9606Y-0.9055
X4.9803Y-1.2079
X4.9803Y-1.2598
X5.0886Y-1.378
X5.2362Y-0.8976
X5.3543Y-1.1811
X5.3543Y-1.2283
X5.3543Y-1.2835
X5.3937Y-3.9862
X5.4035Y-3.6417
X5.4193Y-3.248
X5.4724Y-3.9075
X5.502Y-3.563
X5.5315Y-3.1693
X5.5413Y-1.2303
X5.7559Y-0.8583
X5.7559Y-0.8976
X5.7579Y-0.8268
X5.9134Y-1.1969
X5.9134Y-1.2441
X6.1024Y-0.7953
X6.3681Y-3.2677
X6.3681Y-4.0354
X6.374Y-3.6417
X6.4272Y-3.9764
X6.4567Y-3.5827
X6.4862Y-3.1496
T2
X2.3071Y-3.0228
X2.3071Y-3.3228
X2.3071Y-3.4094
X2.3071Y-3.7094
X2.3071Y-3.7949
X2.3071Y-4.0949
X2.3071Y-4.1803
X2.3071Y-4.4803
X2.7933Y-1.5276
X2.7933Y-1.8276
X2.7953Y-1.9126
X2.7953Y-2.2126
X2.7953Y-2.2992
X2.7953Y-2.5992
X2.7953Y-2.685
X2.7953Y-2.985
X3.126Y-3.0787
X3.126Y-3.3787
X3.126Y-3.4646
X3.126Y-3.7646
X3.126Y-3.8583
X3.126Y-4.1583
X3.126Y-4.2441
X3.126Y-4.5441
X3.6299Y-1.535
X3.6299Y-1.835
X3.6299Y-1.9213
X3.6299Y-2.2213
X3.6299Y-2.3071
X3.6299Y-2.6071
X3.6299Y-2.6929
X3.6299Y-2.9929
X4.0472Y-3.0472
X4.0472Y-3.3472
X4.0472Y-3.4331
X4.0472Y-3.7331
X4.0472Y-3.8189
X4.0472Y-4.1189
X4.0472Y-4.2047
X4.0472Y-4.5047
X4.5433Y-1.511
X4.5433Y-1.811
X4.5433Y-1.8969
X4.5433Y-2.1969
X4.5433Y-2.2827
X4.5433Y-2.5827
X4.5433Y-2.6693
X4.5433Y-2.9693
X4.8504Y-3.0469
X4.8504Y-3.3469
X4.8504Y-3.4323
X4.8504Y-3.7323
X4.8504Y-3.8181
X4.8504Y-4.1181
X4.8504Y-4.2047
X4.8504Y-4.5047
X5.4016Y-1.4882
X5.4016Y-1.7882
X5.4016Y-1.874
X5.4016Y-2.174
X5.4016Y-2.2598
X5.4016Y-2.5598
X5.4016Y-2.6457
X5.4016Y-2.9457
X5.8268Y-3.0858
X5.8268Y-3.3858
X5.8268Y-3.4724
X5.8268Y-3.7724
X5.8268Y-3.8583
X5.8268Y-4.1583
X5.8268Y-4.2433
X5.8268Y-4.5433
X6.315Y-1.4717
X6.315Y-1.7717
X6.315Y-1.8579
X6.315Y-2.1579
X6.315Y-2.2441
X6.315Y-2.5441
X6.315Y-2.6299
X6.315Y-2.9299
T3
X2.5276Y-2.378
X2.5276Y-2.437
X2.5276Y-2.4961
X2.5276Y-2.7559
X2.5276Y-2.815
X2.5276Y-2.874
X2.5354Y-1.6063
X2.5354Y-1.6654
X2.5354Y-1.7244
X2.5354Y-1.9921
X2.5354Y-2.0512
X2.5354Y-2.1102
X2.5669Y-4.2835
X2.5669Y-4.3425
X2.5669Y-4.4016
X2.5728Y-3.1142
X2.5728Y-3.1732
X2.5728Y-3.2323
X2.5728Y-3.8898
X2.5728Y-3.9488
X2.5728Y-4.0079
X2.5748Y-3.4764
X2.5748Y-3.5354
X2.5748Y-3.5945
X3.3622Y-1.6142
X3.3622Y-1.6732
X3.3622Y-1.7323
X3.3701Y-2.0
X3.3701Y-2.0591
X3.3701Y-2.1181
X3.3701Y-2.4173
X3.3701Y-2.4764
X3.3701Y-2.5354
X3.3701Y-2.7638
X3.3701Y-2.8228
X3.3701Y-2.8819
X3.3937Y-3.1496
X3.3937Y-3.2087
X3.3937Y-3.2677
X3.3937Y-3.5433
X3.3937Y-3.6024
X3.3937Y-3.6614
X3.3937Y-4.315
X3.3937Y-4.374
X3.3937Y-4.4331
X3.4016Y-3.9449
X3.4016Y-4.0039
X3.4016Y-4.063
X4.2756Y-2.7953
X4.2756Y-2.8543
X4.2756Y-2.9134
X4.2835Y-1.6063
X4.2835Y-1.6654
X4.2835Y-1.7244
X4.2835Y-1.9921
X4.2835Y-2.0512
X4.2835Y-2.1102
X4.2835Y-2.3465
X4.2835Y-2.4055
X4.2835Y-2.4646
X4.3071Y-3.1732
X4.3071Y-3.2323
X4.3071Y-3.2913
X4.3071Y-3.5276
X4.3071Y-3.5866
X4.3071Y-3.6457
X4.3071Y-3.9134
X4.3071Y-3.9724
X4.3071Y-4.0315
X4.3071Y-4.3071
X4.3071Y-4.3661
X4.3071Y-4.4252
X5.1181Y-3.9055
X5.1181Y-3.9646
X5.1181Y-4.0236
X5.1181Y-4.2835
X5.1181Y-4.3425
X5.1181Y-4.4016
X5.126Y-3.5276
X5.126Y-3.5866
X5.126Y-3.6457
X5.1339Y-1.5748
X5.1339Y-1.6339
X5.1339Y-1.6929
X5.1339Y-1.9764
X5.1339Y-2.0354
X5.1339Y-2.0945
X5.1339Y-2.3622
X5.1339Y-2.4213
X5.1339Y-2.4803
X5.1339Y-2.7323
X5.1339Y-2.7913
X5.1339Y-2.8504
X5.1417Y-3.1339
X5.1417Y-3.1929
X5.1417Y-3.252
X6.0551Y-1.5512
X6.0551Y-1.6102
X6.0551Y-1.6693
X6.0551Y-1.937
X6.0551Y-1.9961
X6.0551Y-2.0551
X6.0551Y-2.3307
X6.0551Y-2.3898
X6.0551Y-2.4488
X6.0551Y-2.7087
X6.0551Y-2.7677
X6.0551Y-2.8268
X6.0866Y-3.1535
X6.0866Y-3.2126
X6.0866Y-3.2717
X6.0945Y-3.5512
X6.0945Y-3.6102
X6.0945Y-3.6693
X6.0945Y-3.9449
X6.0945Y-4.0039
X6.0945Y-4.063
X6.0945Y-4.3228
X6.0945Y-4.3819
X6.0945Y-4.4409
T4
X1.0354Y-0.9938
X1.0433Y-1.2582
X1.252Y-2.0913
X1.252Y-2.1913
X1.252Y-2.2913
X1.252Y-2.3913
X1.252Y-2.4913
X1.252Y-2.5913
X1.252Y-2.6913
X1.252Y-2.7913
X1.252Y-2.8913
X1.252Y-2.9913
X1.252Y-3.0913
X1.252Y-3.1913
X1.252Y-3.2913
X1.252Y-3.3913
X1.252Y-3.4913
X1.252Y-3.5913
X1.252Y-3.6913
X1.252Y-3.7913
X1.252Y-3.8913
X1.252Y-3.9913
X1.352Y-2.0913
X1.352Y-2.1913
X1.352Y-2.2913
X1.352Y-2.3913
X1.352Y-2.4913
X1.352Y-2.5913
X1.352Y-2.6913
X1.352Y-2.7913
X1.352Y-2.8913
X1.352Y-2.9913
X1.352Y-3.0913
X1.352Y-3.1913
X1.352Y-3.2913
X1.352Y-3.3913
X1.352Y-3.4913
X1.352Y-3.5913
X1.352Y-3.6913
X1.352Y-3.7913
X1.352Y-3.8913
X1.352Y-3.9913
X1.622Y-1.501
X1.622Y-1.601
X1.626Y-0.9938
X1.6339Y-1.2582
X2.0709Y-1.6028
X2.0709Y-1.7028
X2.5014Y-1.4488
X2.6014Y-1.4488
X3.0079Y-1.1388
X3.0079Y-1.2388
X3.9843Y-1.1362
X3.9843Y-1.2362
X4.7933Y-1.1407
X4.7933Y-1.2407
X5.685Y-1.1126
X5.685Y-1.2126
T5
X1.1205Y-1.5453
X1.2205Y-1.5453
X1.3205Y-1.5453
M30
