%TF.GenerationSoftware,KiCad,Pcbnew,8.0.6*%
%TF.CreationDate,2024-11-05T12:51:11-06:00*%
%TF.ProjectId,GameBoardMatrix,47616d65-426f-4617-9264-4d6174726978,rev?*%
%TF.SameCoordinates,Original*%
%TF.FileFunction,Paste,Top*%
%TF.FilePolarity,Positive*%
%FSLAX46Y46*%
G04 Gerber Fmt 4.6, Leading zero omitted, Abs format (unit mm)*
G04 Created by KiCad (PCBNEW 8.0.6) date 2024-11-05 12:51:11*
%MOMM*%
%LPD*%
G01*
G04 APERTURE LIST*
%ADD10R,1.300800X1.058800*%
%ADD11R,2.184400X0.558800*%
G04 APERTURE END LIST*
D10*
%TO.C,C10*%
X80400000Y-51200000D03*
X80400000Y-53258800D03*
%TD*%
%TO.C,C8*%
X70200000Y-110658800D03*
X70200000Y-108600000D03*
%TD*%
%TO.C,C6*%
X70600000Y-90458800D03*
X70600000Y-88400000D03*
%TD*%
%TO.C,C12*%
X80400000Y-70570600D03*
X80400000Y-72629400D03*
%TD*%
%TO.C,C25*%
X125200000Y-40141200D03*
X125200000Y-42200000D03*
%TD*%
%TO.C,C13*%
X91400000Y-83058800D03*
X91400000Y-81000000D03*
%TD*%
D11*
%TO.C,U7*%
X83400000Y-24860000D03*
X83400000Y-26130000D03*
X83400000Y-27400000D03*
X83400000Y-28670000D03*
X83400000Y-29940000D03*
X83400000Y-31210000D03*
X83400000Y-32480000D03*
X83400000Y-33750000D03*
X88124400Y-33750000D03*
X88124400Y-32480000D03*
X88124400Y-31210000D03*
X88124400Y-29940000D03*
X88124400Y-28670000D03*
X88124400Y-27400000D03*
X88124400Y-26130000D03*
X88124400Y-24860000D03*
%TD*%
D10*
%TO.C,C9*%
X80200000Y-41741200D03*
X80200000Y-43800000D03*
%TD*%
%TO.C,C18*%
X103600000Y-50541200D03*
X103600000Y-52600000D03*
%TD*%
%TO.C,C22*%
X114400000Y-92458800D03*
X114400000Y-90400000D03*
%TD*%
D11*
%TO.C,U17*%
X107000000Y-25060000D03*
X107000000Y-26330000D03*
X107000000Y-27600000D03*
X107000000Y-28870000D03*
X107000000Y-30140000D03*
X107000000Y-31410000D03*
X107000000Y-32680000D03*
X107000000Y-33950000D03*
X111724400Y-33950000D03*
X111724400Y-32680000D03*
X111724400Y-31410000D03*
X111724400Y-30140000D03*
X111724400Y-28870000D03*
X111724400Y-27600000D03*
X111724400Y-26330000D03*
X111724400Y-25060000D03*
%TD*%
D10*
%TO.C,C38*%
X160000000Y-93058800D03*
X160000000Y-91000000D03*
%TD*%
%TO.C,C1*%
X59150000Y-41200000D03*
X59150000Y-43258800D03*
%TD*%
%TO.C,C4*%
X59000000Y-60741200D03*
X59000000Y-62800000D03*
%TD*%
%TO.C,C19*%
X103600000Y-59741200D03*
X103600000Y-61800000D03*
%TD*%
%TO.C,C28*%
X125200000Y-69400000D03*
X125200000Y-71458800D03*
%TD*%
%TO.C,C39*%
X160000000Y-103058800D03*
X160000000Y-101000000D03*
%TD*%
D11*
%TO.C,U27*%
X128275600Y-24330000D03*
X128275600Y-25600000D03*
X128275600Y-26870000D03*
X128275600Y-28140000D03*
X128275600Y-29410000D03*
X128275600Y-30680000D03*
X128275600Y-31950000D03*
X128275600Y-33220000D03*
X133000000Y-33220000D03*
X133000000Y-31950000D03*
X133000000Y-30680000D03*
X133000000Y-29410000D03*
X133000000Y-28140000D03*
X133000000Y-26870000D03*
X133000000Y-25600000D03*
X133000000Y-24330000D03*
%TD*%
D10*
%TO.C,C2*%
X70600000Y-81258800D03*
X70600000Y-79200000D03*
%TD*%
%TO.C,C30*%
X135400000Y-92458800D03*
X135400000Y-90400000D03*
%TD*%
%TO.C,C5*%
X59000000Y-70341200D03*
X59000000Y-72400000D03*
%TD*%
%TO.C,C31*%
X135200000Y-101858800D03*
X135200000Y-99800000D03*
%TD*%
%TO.C,C3*%
X59200000Y-50941200D03*
X59200000Y-53000000D03*
%TD*%
%TO.C,C37*%
X159800000Y-83058800D03*
X159800000Y-81000000D03*
%TD*%
%TO.C,C26*%
X125200000Y-50170600D03*
X125200000Y-52229400D03*
%TD*%
%TO.C,C15*%
X91600000Y-103258800D03*
X91600000Y-101200000D03*
%TD*%
%TO.C,C40*%
X160000000Y-112658800D03*
X160000000Y-110600000D03*
%TD*%
D11*
%TO.C,U37*%
X151837800Y-24155000D03*
X151837800Y-25425000D03*
X151837800Y-26695000D03*
X151837800Y-27965000D03*
X151837800Y-29235000D03*
X151837800Y-30505000D03*
X151837800Y-31775000D03*
X151837800Y-33045000D03*
X156562200Y-33045000D03*
X156562200Y-31775000D03*
X156562200Y-30505000D03*
X156562200Y-29235000D03*
X156562200Y-27965000D03*
X156562200Y-26695000D03*
X156562200Y-25425000D03*
X156562200Y-24155000D03*
%TD*%
D10*
%TO.C,C32*%
X135200000Y-111658800D03*
X135200000Y-109600000D03*
%TD*%
%TO.C,C33*%
X148600000Y-39541200D03*
X148600000Y-41600000D03*
%TD*%
%TO.C,C20*%
X103400000Y-70941200D03*
X103400000Y-73000000D03*
%TD*%
%TO.C,C16*%
X91400000Y-112658800D03*
X91400000Y-110600000D03*
%TD*%
%TO.C,C23*%
X114600000Y-102258800D03*
X114600000Y-100200000D03*
%TD*%
%TO.C,C11*%
X80400000Y-61541200D03*
X80400000Y-63600000D03*
%TD*%
%TO.C,C29*%
X135800000Y-82429400D03*
X135800000Y-80370600D03*
%TD*%
%TO.C,C17*%
X103600000Y-41000000D03*
X103600000Y-43058800D03*
%TD*%
%TO.C,C34*%
X148600000Y-49170600D03*
X148600000Y-51229400D03*
%TD*%
%TO.C,C24*%
X114600000Y-112400000D03*
X114600000Y-110341200D03*
%TD*%
%TO.C,C36*%
X148600000Y-69000000D03*
X148600000Y-71058800D03*
%TD*%
%TO.C,C27*%
X125200000Y-60000000D03*
X125200000Y-62058800D03*
%TD*%
%TO.C,C35*%
X148600000Y-59341200D03*
X148600000Y-61400000D03*
%TD*%
%TO.C,C7*%
X70600000Y-100858800D03*
X70600000Y-98800000D03*
%TD*%
%TO.C,C21*%
X114400000Y-83258800D03*
X114400000Y-81200000D03*
%TD*%
D11*
%TO.C,U1*%
X62437800Y-24955000D03*
X62437800Y-26225000D03*
X62437800Y-27495000D03*
X62437800Y-28765000D03*
X62437800Y-30035000D03*
X62437800Y-31305000D03*
X62437800Y-32575000D03*
X62437800Y-33845000D03*
X67162200Y-33845000D03*
X67162200Y-32575000D03*
X67162200Y-31305000D03*
X67162200Y-30035000D03*
X67162200Y-28765000D03*
X67162200Y-27495000D03*
X67162200Y-26225000D03*
X67162200Y-24955000D03*
%TD*%
D10*
%TO.C,C14*%
X91400000Y-93058800D03*
X91400000Y-91000000D03*
%TD*%
M02*
