%TF.GenerationSoftware,KiCad,Pcbnew,8.0.6*%
%TF.CreationDate,2024-11-05T12:51:11-06:00*%
%TF.ProjectId,GameBoardMatrix,47616d65-426f-4617-9264-4d6174726978,rev?*%
%TF.SameCoordinates,Original*%
%TF.FileFunction,Copper,L1,Top*%
%TF.FilePolarity,Positive*%
%FSLAX46Y46*%
G04 Gerber Fmt 4.6, Leading zero omitted, Abs format (unit mm)*
G04 Created by KiCad (PCBNEW 8.0.6) date 2024-11-05 12:51:11*
%MOMM*%
%LPD*%
G01*
G04 APERTURE LIST*
G04 Aperture macros list*
%AMRoundRect*
0 Rectangle with rounded corners*
0 $1 Rounding radius*
0 $2 $3 $4 $5 $6 $7 $8 $9 X,Y pos of 4 corners*
0 Add a 4 corners polygon primitive as box body*
4,1,4,$2,$3,$4,$5,$6,$7,$8,$9,$2,$3,0*
0 Add four circle primitives for the rounded corners*
1,1,$1+$1,$2,$3*
1,1,$1+$1,$4,$5*
1,1,$1+$1,$6,$7*
1,1,$1+$1,$8,$9*
0 Add four rect primitives between the rounded corners*
20,1,$1+$1,$2,$3,$4,$5,0*
20,1,$1+$1,$4,$5,$6,$7,0*
20,1,$1+$1,$6,$7,$8,$9,0*
20,1,$1+$1,$8,$9,$2,$3,0*%
G04 Aperture macros list end*
%ADD10C,0.300000*%
%TA.AperFunction,NonConductor*%
%ADD11C,0.300000*%
%TD*%
%TA.AperFunction,ComponentPad*%
%ADD12C,1.400000*%
%TD*%
%TA.AperFunction,ComponentPad*%
%ADD13O,1.400000X1.400000*%
%TD*%
%TA.AperFunction,SMDPad,CuDef*%
%ADD14R,1.300800X1.058800*%
%TD*%
%TA.AperFunction,ComponentPad*%
%ADD15R,2.000000X2.000000*%
%TD*%
%TA.AperFunction,ComponentPad*%
%ADD16O,2.000000X2.000000*%
%TD*%
%TA.AperFunction,ComponentPad*%
%ADD17RoundRect,0.250000X0.615000X-0.265000X0.615000X0.265000X-0.615000X0.265000X-0.615000X-0.265000X0*%
%TD*%
%TA.AperFunction,ComponentPad*%
%ADD18O,1.730000X1.030000*%
%TD*%
%TA.AperFunction,ComponentPad*%
%ADD19RoundRect,0.250000X-0.615000X0.265000X-0.615000X-0.265000X0.615000X-0.265000X0.615000X0.265000X0*%
%TD*%
%TA.AperFunction,SMDPad,CuDef*%
%ADD20R,2.184400X0.558800*%
%TD*%
%TA.AperFunction,ComponentPad*%
%ADD21C,1.700000*%
%TD*%
%TA.AperFunction,ComponentPad*%
%ADD22O,1.700000X1.700000*%
%TD*%
%TA.AperFunction,ComponentPad*%
%ADD23R,1.935000X1.935000*%
%TD*%
%TA.AperFunction,ComponentPad*%
%ADD24C,1.935000*%
%TD*%
%TA.AperFunction,ComponentPad*%
%ADD25R,1.700000X1.700000*%
%TD*%
%TA.AperFunction,ViaPad*%
%ADD26C,0.600000*%
%TD*%
%TA.AperFunction,Conductor*%
%ADD27C,0.200000*%
%TD*%
%TA.AperFunction,Conductor*%
%ADD28C,0.500000*%
%TD*%
G04 APERTURE END LIST*
D10*
D11*
X181406891Y-168210590D02*
X180930701Y-167972495D01*
X180930701Y-167972495D02*
X180216415Y-167972495D01*
X180216415Y-167972495D02*
X179502129Y-168210590D01*
X179502129Y-168210590D02*
X179025939Y-168686780D01*
X179025939Y-168686780D02*
X178787844Y-169162971D01*
X178787844Y-169162971D02*
X178549748Y-170115352D01*
X178549748Y-170115352D02*
X178549748Y-170829638D01*
X178549748Y-170829638D02*
X178787844Y-171782019D01*
X178787844Y-171782019D02*
X179025939Y-172258209D01*
X179025939Y-172258209D02*
X179502129Y-172734400D01*
X179502129Y-172734400D02*
X180216415Y-172972495D01*
X180216415Y-172972495D02*
X180692606Y-172972495D01*
X180692606Y-172972495D02*
X181406891Y-172734400D01*
X181406891Y-172734400D02*
X181644987Y-172496304D01*
X181644987Y-172496304D02*
X181644987Y-170829638D01*
X181644987Y-170829638D02*
X180692606Y-170829638D01*
X185930701Y-172972495D02*
X185930701Y-170353447D01*
X185930701Y-170353447D02*
X185692606Y-169877257D01*
X185692606Y-169877257D02*
X185216415Y-169639161D01*
X185216415Y-169639161D02*
X184264034Y-169639161D01*
X184264034Y-169639161D02*
X183787844Y-169877257D01*
X185930701Y-172734400D02*
X185454510Y-172972495D01*
X185454510Y-172972495D02*
X184264034Y-172972495D01*
X184264034Y-172972495D02*
X183787844Y-172734400D01*
X183787844Y-172734400D02*
X183549748Y-172258209D01*
X183549748Y-172258209D02*
X183549748Y-171782019D01*
X183549748Y-171782019D02*
X183787844Y-171305828D01*
X183787844Y-171305828D02*
X184264034Y-171067733D01*
X184264034Y-171067733D02*
X185454510Y-171067733D01*
X185454510Y-171067733D02*
X185930701Y-170829638D01*
X188311654Y-172972495D02*
X188311654Y-169639161D01*
X188311654Y-170115352D02*
X188549749Y-169877257D01*
X188549749Y-169877257D02*
X189025939Y-169639161D01*
X189025939Y-169639161D02*
X189740225Y-169639161D01*
X189740225Y-169639161D02*
X190216416Y-169877257D01*
X190216416Y-169877257D02*
X190454511Y-170353447D01*
X190454511Y-170353447D02*
X190454511Y-172972495D01*
X190454511Y-170353447D02*
X190692606Y-169877257D01*
X190692606Y-169877257D02*
X191168797Y-169639161D01*
X191168797Y-169639161D02*
X191883082Y-169639161D01*
X191883082Y-169639161D02*
X192359273Y-169877257D01*
X192359273Y-169877257D02*
X192597368Y-170353447D01*
X192597368Y-170353447D02*
X192597368Y-172972495D01*
X196883083Y-172734400D02*
X196406892Y-172972495D01*
X196406892Y-172972495D02*
X195454511Y-172972495D01*
X195454511Y-172972495D02*
X194978321Y-172734400D01*
X194978321Y-172734400D02*
X194740225Y-172258209D01*
X194740225Y-172258209D02*
X194740225Y-170353447D01*
X194740225Y-170353447D02*
X194978321Y-169877257D01*
X194978321Y-169877257D02*
X195454511Y-169639161D01*
X195454511Y-169639161D02*
X196406892Y-169639161D01*
X196406892Y-169639161D02*
X196883083Y-169877257D01*
X196883083Y-169877257D02*
X197121178Y-170353447D01*
X197121178Y-170353447D02*
X197121178Y-170829638D01*
X197121178Y-170829638D02*
X194740225Y-171305828D01*
X204740225Y-170353447D02*
X205454511Y-170591542D01*
X205454511Y-170591542D02*
X205692606Y-170829638D01*
X205692606Y-170829638D02*
X205930702Y-171305828D01*
X205930702Y-171305828D02*
X205930702Y-172020114D01*
X205930702Y-172020114D02*
X205692606Y-172496304D01*
X205692606Y-172496304D02*
X205454511Y-172734400D01*
X205454511Y-172734400D02*
X204978321Y-172972495D01*
X204978321Y-172972495D02*
X203073559Y-172972495D01*
X203073559Y-172972495D02*
X203073559Y-167972495D01*
X203073559Y-167972495D02*
X204740225Y-167972495D01*
X204740225Y-167972495D02*
X205216416Y-168210590D01*
X205216416Y-168210590D02*
X205454511Y-168448685D01*
X205454511Y-168448685D02*
X205692606Y-168924876D01*
X205692606Y-168924876D02*
X205692606Y-169401066D01*
X205692606Y-169401066D02*
X205454511Y-169877257D01*
X205454511Y-169877257D02*
X205216416Y-170115352D01*
X205216416Y-170115352D02*
X204740225Y-170353447D01*
X204740225Y-170353447D02*
X203073559Y-170353447D01*
X208787844Y-172972495D02*
X208311654Y-172734400D01*
X208311654Y-172734400D02*
X208073559Y-172496304D01*
X208073559Y-172496304D02*
X207835463Y-172020114D01*
X207835463Y-172020114D02*
X207835463Y-170591542D01*
X207835463Y-170591542D02*
X208073559Y-170115352D01*
X208073559Y-170115352D02*
X208311654Y-169877257D01*
X208311654Y-169877257D02*
X208787844Y-169639161D01*
X208787844Y-169639161D02*
X209502130Y-169639161D01*
X209502130Y-169639161D02*
X209978321Y-169877257D01*
X209978321Y-169877257D02*
X210216416Y-170115352D01*
X210216416Y-170115352D02*
X210454511Y-170591542D01*
X210454511Y-170591542D02*
X210454511Y-172020114D01*
X210454511Y-172020114D02*
X210216416Y-172496304D01*
X210216416Y-172496304D02*
X209978321Y-172734400D01*
X209978321Y-172734400D02*
X209502130Y-172972495D01*
X209502130Y-172972495D02*
X208787844Y-172972495D01*
X214740226Y-172972495D02*
X214740226Y-170353447D01*
X214740226Y-170353447D02*
X214502131Y-169877257D01*
X214502131Y-169877257D02*
X214025940Y-169639161D01*
X214025940Y-169639161D02*
X213073559Y-169639161D01*
X213073559Y-169639161D02*
X212597369Y-169877257D01*
X214740226Y-172734400D02*
X214264035Y-172972495D01*
X214264035Y-172972495D02*
X213073559Y-172972495D01*
X213073559Y-172972495D02*
X212597369Y-172734400D01*
X212597369Y-172734400D02*
X212359273Y-172258209D01*
X212359273Y-172258209D02*
X212359273Y-171782019D01*
X212359273Y-171782019D02*
X212597369Y-171305828D01*
X212597369Y-171305828D02*
X213073559Y-171067733D01*
X213073559Y-171067733D02*
X214264035Y-171067733D01*
X214264035Y-171067733D02*
X214740226Y-170829638D01*
X217121179Y-172972495D02*
X217121179Y-169639161D01*
X217121179Y-170591542D02*
X217359274Y-170115352D01*
X217359274Y-170115352D02*
X217597369Y-169877257D01*
X217597369Y-169877257D02*
X218073560Y-169639161D01*
X218073560Y-169639161D02*
X218549750Y-169639161D01*
X222359274Y-172972495D02*
X222359274Y-167972495D01*
X222359274Y-172734400D02*
X221883083Y-172972495D01*
X221883083Y-172972495D02*
X220930702Y-172972495D01*
X220930702Y-172972495D02*
X220454512Y-172734400D01*
X220454512Y-172734400D02*
X220216417Y-172496304D01*
X220216417Y-172496304D02*
X219978321Y-172020114D01*
X219978321Y-172020114D02*
X219978321Y-170591542D01*
X219978321Y-170591542D02*
X220216417Y-170115352D01*
X220216417Y-170115352D02*
X220454512Y-169877257D01*
X220454512Y-169877257D02*
X220930702Y-169639161D01*
X220930702Y-169639161D02*
X221883083Y-169639161D01*
X221883083Y-169639161D02*
X222359274Y-169877257D01*
X228549751Y-172972495D02*
X228549751Y-167972495D01*
X228549751Y-167972495D02*
X230454513Y-167972495D01*
X230454513Y-167972495D02*
X230930703Y-168210590D01*
X230930703Y-168210590D02*
X231168798Y-168448685D01*
X231168798Y-168448685D02*
X231406894Y-168924876D01*
X231406894Y-168924876D02*
X231406894Y-169639161D01*
X231406894Y-169639161D02*
X231168798Y-170115352D01*
X231168798Y-170115352D02*
X230930703Y-170353447D01*
X230930703Y-170353447D02*
X230454513Y-170591542D01*
X230454513Y-170591542D02*
X228549751Y-170591542D01*
X236406894Y-172496304D02*
X236168798Y-172734400D01*
X236168798Y-172734400D02*
X235454513Y-172972495D01*
X235454513Y-172972495D02*
X234978322Y-172972495D01*
X234978322Y-172972495D02*
X234264036Y-172734400D01*
X234264036Y-172734400D02*
X233787846Y-172258209D01*
X233787846Y-172258209D02*
X233549751Y-171782019D01*
X233549751Y-171782019D02*
X233311655Y-170829638D01*
X233311655Y-170829638D02*
X233311655Y-170115352D01*
X233311655Y-170115352D02*
X233549751Y-169162971D01*
X233549751Y-169162971D02*
X233787846Y-168686780D01*
X233787846Y-168686780D02*
X234264036Y-168210590D01*
X234264036Y-168210590D02*
X234978322Y-167972495D01*
X234978322Y-167972495D02*
X235454513Y-167972495D01*
X235454513Y-167972495D02*
X236168798Y-168210590D01*
X236168798Y-168210590D02*
X236406894Y-168448685D01*
X240216417Y-170353447D02*
X240930703Y-170591542D01*
X240930703Y-170591542D02*
X241168798Y-170829638D01*
X241168798Y-170829638D02*
X241406894Y-171305828D01*
X241406894Y-171305828D02*
X241406894Y-172020114D01*
X241406894Y-172020114D02*
X241168798Y-172496304D01*
X241168798Y-172496304D02*
X240930703Y-172734400D01*
X240930703Y-172734400D02*
X240454513Y-172972495D01*
X240454513Y-172972495D02*
X238549751Y-172972495D01*
X238549751Y-172972495D02*
X238549751Y-167972495D01*
X238549751Y-167972495D02*
X240216417Y-167972495D01*
X240216417Y-167972495D02*
X240692608Y-168210590D01*
X240692608Y-168210590D02*
X240930703Y-168448685D01*
X240930703Y-168448685D02*
X241168798Y-168924876D01*
X241168798Y-168924876D02*
X241168798Y-169401066D01*
X241168798Y-169401066D02*
X240930703Y-169877257D01*
X240930703Y-169877257D02*
X240692608Y-170115352D01*
X240692608Y-170115352D02*
X240216417Y-170353447D01*
X240216417Y-170353447D02*
X238549751Y-170353447D01*
D12*
%TO.P,R12,1*%
%TO.N,Net-(U11-VOUT)*%
X92200000Y-68400000D03*
D13*
%TO.P,R12,2*%
%TO.N,/3.3V_Board*%
X92200000Y-76020000D03*
%TD*%
D12*
%TO.P,R6,1*%
%TO.N,Net-(U1-D5)*%
X58600000Y-94220000D03*
D13*
%TO.P,R6,2*%
%TO.N,/3.3V_Board*%
X58600000Y-86600000D03*
%TD*%
D14*
%TO.P,C10,1*%
%TO.N,Net-(U7-D1)*%
X80400000Y-51200000D03*
%TO.P,C10,2*%
%TO.N,GND2*%
X80400000Y-53258800D03*
%TD*%
D15*
%TO.P,C42,1*%
%TO.N,/3.3V_Board*%
X41500000Y-31957500D03*
D16*
%TO.P,C42,2*%
%TO.N,GND3*%
X26500000Y-31957500D03*
%TD*%
D17*
%TO.P,U38,1,VCC*%
%TO.N,/3.3V_Board*%
X153800000Y-42400000D03*
D18*
%TO.P,U38,2,VOUT*%
%TO.N,Net-(U37-D0)*%
X153800000Y-39400000D03*
%TO.P,U38,3,GND*%
%TO.N,GND2*%
X153800000Y-40900000D03*
%TD*%
D17*
%TO.P,U40,1,VCC*%
%TO.N,/3.3V_Board*%
X153800000Y-62200000D03*
D18*
%TO.P,U40,2,VOUT*%
%TO.N,Net-(U37-D2)*%
X153800000Y-59200000D03*
%TO.P,U40,3,GND*%
%TO.N,GND2*%
X153800000Y-60700000D03*
%TD*%
D19*
%TO.P,U14,1,VCC*%
%TO.N,/3.3V_Board*%
X86400000Y-100200000D03*
D18*
%TO.P,U14,2,VOUT*%
%TO.N,Net-(U14-VOUT)*%
X86400000Y-103200000D03*
%TO.P,U14,3,GND*%
%TO.N,GND2*%
X86400000Y-101700000D03*
%TD*%
D19*
%TO.P,U25,1,VCC*%
%TO.N,/3.3V_Board*%
X109400000Y-99400000D03*
D18*
%TO.P,U25,2,VOUT*%
%TO.N,Net-(U17-D6)*%
X109400000Y-102400000D03*
%TO.P,U25,3,GND*%
%TO.N,GND2*%
X109400000Y-100900000D03*
%TD*%
D12*
%TO.P,R29,1*%
%TO.N,Net-(U27-D4)*%
X123200000Y-85010000D03*
D13*
%TO.P,R29,2*%
%TO.N,/3.3V_Board*%
X123200000Y-77390000D03*
%TD*%
D14*
%TO.P,C8,1*%
%TO.N,Net-(U1-D7)*%
X70200000Y-110658800D03*
%TO.P,C8,2*%
%TO.N,GND2*%
X70200000Y-108600000D03*
%TD*%
D12*
%TO.P,R37,1*%
%TO.N,Net-(U37-D4)*%
X148000000Y-86000000D03*
D13*
%TO.P,R37,2*%
%TO.N,/3.3V_Board*%
X148000000Y-78380000D03*
%TD*%
D17*
%TO.P,U29,1,VCC*%
%TO.N,/3.3V_Board*%
X130400000Y-53200000D03*
D18*
%TO.P,U29,2,VOUT*%
%TO.N,Net-(U27-D1)*%
X130400000Y-50200000D03*
%TO.P,U29,3,GND*%
%TO.N,GND2*%
X130400000Y-51700000D03*
%TD*%
D12*
%TO.P,R16,1*%
%TO.N,Net-(U16-VOUT)*%
X79400000Y-115420000D03*
D13*
%TO.P,R16,2*%
%TO.N,/3.3V_Board*%
X79400000Y-107800000D03*
%TD*%
D14*
%TO.P,C6,1*%
%TO.N,Net-(U1-D5)*%
X70600000Y-90458800D03*
%TO.P,C6,2*%
%TO.N,GND2*%
X70600000Y-88400000D03*
%TD*%
%TO.P,C12,1*%
%TO.N,Net-(U11-VOUT)*%
X80400000Y-70570600D03*
%TO.P,C12,2*%
%TO.N,GND2*%
X80400000Y-72629400D03*
%TD*%
%TO.P,C25,1*%
%TO.N,Net-(U27-D0)*%
X125200000Y-40141200D03*
%TO.P,C25,2*%
%TO.N,GND2*%
X125200000Y-42200000D03*
%TD*%
D17*
%TO.P,U39,1,VCC*%
%TO.N,/3.3V_Board*%
X153800000Y-52200000D03*
D18*
%TO.P,U39,2,VOUT*%
%TO.N,Net-(U37-D1)*%
X153800000Y-49200000D03*
%TO.P,U39,3,GND*%
%TO.N,GND2*%
X153800000Y-50700000D03*
%TD*%
D14*
%TO.P,C13,1*%
%TO.N,Net-(U12-VOUT)*%
X91400000Y-83058800D03*
%TO.P,C13,2*%
%TO.N,GND2*%
X91400000Y-81000000D03*
%TD*%
D20*
%TO.P,U7,1,D3*%
%TO.N,Net-(U11-VOUT)*%
X83400000Y-24860000D03*
%TO.P,U7,2,D2*%
%TO.N,Net-(U10-VOUT)*%
X83400000Y-26130000D03*
%TO.P,U7,3,D1*%
%TO.N,Net-(U7-D1)*%
X83400000Y-27400000D03*
%TO.P,U7,4,D0*%
%TO.N,Net-(U7-D0)*%
X83400000Y-28670000D03*
%TO.P,U7,5,Y*%
%TO.N,unconnected-(U7-Y-Pad5)*%
X83400000Y-29940000D03*
%TO.P,U7,6,W*%
%TO.N,GPIO3{slash}PIN5*%
X83400000Y-31210000D03*
%TO.P,U7,7,\u002AG*%
%TO.N,GND*%
X83400000Y-32480000D03*
%TO.P,U7,8,GND*%
X83400000Y-33750000D03*
%TO.P,U7,9,C*%
%TO.N,GPIO18{slash}PIN12*%
X88124400Y-33750000D03*
%TO.P,U7,10,B*%
%TO.N,GPIO15{slash}PIN10*%
X88124400Y-32480000D03*
%TO.P,U7,11,A*%
%TO.N,GPIO14{slash}PIN8*%
X88124400Y-31210000D03*
%TO.P,U7,12,D7*%
%TO.N,Net-(U16-VOUT)*%
X88124400Y-29940000D03*
%TO.P,U7,13,D6*%
%TO.N,Net-(U14-VOUT)*%
X88124400Y-28670000D03*
%TO.P,U7,14,D5*%
%TO.N,Net-(U13-VOUT)*%
X88124400Y-27400000D03*
%TO.P,U7,15,D4*%
%TO.N,Net-(U12-VOUT)*%
X88124400Y-26130000D03*
%TO.P,U7,16,VCC*%
%TO.N,/3.3V_Board*%
X88124400Y-24860000D03*
%TD*%
D12*
%TO.P,R35,1*%
%TO.N,Net-(U37-D2)*%
X160400000Y-57000000D03*
D13*
%TO.P,R35,2*%
%TO.N,/3.3V_Board*%
X160400000Y-64620000D03*
%TD*%
D14*
%TO.P,C9,1*%
%TO.N,Net-(U7-D0)*%
X80200000Y-41741200D03*
%TO.P,C9,2*%
%TO.N,GND2*%
X80200000Y-43800000D03*
%TD*%
%TO.P,C18,1*%
%TO.N,Net-(U17-D1)*%
X103600000Y-50541200D03*
%TO.P,C18,2*%
%TO.N,GND2*%
X103600000Y-52600000D03*
%TD*%
%TO.P,C22,1*%
%TO.N,Net-(U17-D5)*%
X114400000Y-92458800D03*
%TO.P,C22,2*%
%TO.N,GND2*%
X114400000Y-90400000D03*
%TD*%
D20*
%TO.P,U17,1,D3*%
%TO.N,Net-(U17-D3)*%
X107000000Y-25060000D03*
%TO.P,U17,2,D2*%
%TO.N,Net-(U17-D2)*%
X107000000Y-26330000D03*
%TO.P,U17,3,D1*%
%TO.N,Net-(U17-D1)*%
X107000000Y-27600000D03*
%TO.P,U17,4,D0*%
%TO.N,Net-(U17-D0)*%
X107000000Y-28870000D03*
%TO.P,U17,5,Y*%
%TO.N,unconnected-(U17-Y-Pad5)*%
X107000000Y-30140000D03*
%TO.P,U17,6,W*%
%TO.N,GPIO4{slash}PIN7*%
X107000000Y-31410000D03*
%TO.P,U17,7,\u002AG*%
%TO.N,GND*%
X107000000Y-32680000D03*
%TO.P,U17,8,GND*%
X107000000Y-33950000D03*
%TO.P,U17,9,C*%
%TO.N,GPIO18{slash}PIN12*%
X111724400Y-33950000D03*
%TO.P,U17,10,B*%
%TO.N,GPIO15{slash}PIN10*%
X111724400Y-32680000D03*
%TO.P,U17,11,A*%
%TO.N,GPIO14{slash}PIN8*%
X111724400Y-31410000D03*
%TO.P,U17,12,D7*%
%TO.N,Net-(U17-D7)*%
X111724400Y-30140000D03*
%TO.P,U17,13,D6*%
%TO.N,Net-(U17-D6)*%
X111724400Y-28870000D03*
%TO.P,U17,14,D5*%
%TO.N,Net-(U17-D5)*%
X111724400Y-27600000D03*
%TO.P,U17,15,D4*%
%TO.N,Net-(U17-D4)*%
X111724400Y-26330000D03*
%TO.P,U17,16,VCC*%
%TO.N,/3.3V_Board*%
X111724400Y-25060000D03*
%TD*%
D14*
%TO.P,C38,1*%
%TO.N,Net-(U37-D5)*%
X160000000Y-93058800D03*
%TO.P,C38,2*%
%TO.N,GND2*%
X160000000Y-91000000D03*
%TD*%
%TO.P,C1,1*%
%TO.N,Net-(TP6-A)*%
X59150000Y-41200000D03*
%TO.P,C1,2*%
%TO.N,GND2*%
X59150000Y-43258800D03*
%TD*%
D17*
%TO.P,U8,1,VCC*%
%TO.N,/3.3V_Board*%
X85400000Y-44000000D03*
D18*
%TO.P,U8,2,VOUT*%
%TO.N,Net-(U7-D0)*%
X85400000Y-41000000D03*
%TO.P,U8,3,GND*%
%TO.N,GND2*%
X85400000Y-42500000D03*
%TD*%
D15*
%TO.P,C41,1*%
%TO.N,5V Board*%
X26300000Y-25242500D03*
D16*
%TO.P,C41,2*%
%TO.N,GND3*%
X41300000Y-25242500D03*
%TD*%
D19*
%TO.P,U42,1,VCC*%
%TO.N,/3.3V_Board*%
X154600000Y-80100000D03*
D18*
%TO.P,U42,2,VOUT*%
%TO.N,Net-(U37-D4)*%
X154600000Y-83100000D03*
%TO.P,U42,3,GND*%
%TO.N,GND2*%
X154600000Y-81600000D03*
%TD*%
D14*
%TO.P,C4,1*%
%TO.N,Net-(U1-D2)*%
X59000000Y-60741200D03*
%TO.P,C4,2*%
%TO.N,GND2*%
X59000000Y-62800000D03*
%TD*%
D12*
%TO.P,R24,1*%
%TO.N,Net-(U17-D7)*%
X102800000Y-114420000D03*
D13*
%TO.P,R24,2*%
%TO.N,/3.3V_Board*%
X102800000Y-106800000D03*
%TD*%
D17*
%TO.P,U30,1,VCC*%
%TO.N,/3.3V_Board*%
X130400000Y-63000000D03*
D18*
%TO.P,U30,2,VOUT*%
%TO.N,Net-(U27-D2)*%
X130400000Y-60000000D03*
%TO.P,U30,3,GND*%
%TO.N,GND2*%
X130400000Y-61500000D03*
%TD*%
D19*
%TO.P,U12,1,VCC*%
%TO.N,/3.3V_Board*%
X86200000Y-80000000D03*
D18*
%TO.P,U12,2,VOUT*%
%TO.N,Net-(U12-VOUT)*%
X86200000Y-83000000D03*
%TO.P,U12,3,GND*%
%TO.N,GND2*%
X86200000Y-81500000D03*
%TD*%
D14*
%TO.P,C19,1*%
%TO.N,Net-(U17-D2)*%
X103600000Y-59741200D03*
%TO.P,C19,2*%
%TO.N,GND2*%
X103600000Y-61800000D03*
%TD*%
D17*
%TO.P,U20,1,VCC*%
%TO.N,/3.3V_Board*%
X108800000Y-62600000D03*
D18*
%TO.P,U20,2,VOUT*%
%TO.N,Net-(U17-D2)*%
X108800000Y-59600000D03*
%TO.P,U20,3,GND*%
%TO.N,GND2*%
X108800000Y-61100000D03*
%TD*%
D12*
%TO.P,R9,1*%
%TO.N,Net-(U7-D0)*%
X92200000Y-38990000D03*
D13*
%TO.P,R9,2*%
%TO.N,/3.3V_Board*%
X92200000Y-46610000D03*
%TD*%
D14*
%TO.P,C28,1*%
%TO.N,Net-(U27-D3)*%
X125200000Y-69400000D03*
%TO.P,C28,2*%
%TO.N,GND2*%
X125200000Y-71458800D03*
%TD*%
%TO.P,C39,1*%
%TO.N,Net-(U37-D6)*%
X160000000Y-103058800D03*
%TO.P,C39,2*%
%TO.N,GND2*%
X160000000Y-101000000D03*
%TD*%
D19*
%TO.P,U13,1,VCC*%
%TO.N,/3.3V_Board*%
X86200000Y-90000000D03*
D18*
%TO.P,U13,2,VOUT*%
%TO.N,Net-(U13-VOUT)*%
X86200000Y-93000000D03*
%TO.P,U13,3,GND*%
%TO.N,GND2*%
X86200000Y-91500000D03*
%TD*%
D12*
%TO.P,R5,1*%
%TO.N,Net-(U1-D3)*%
X71000000Y-68200000D03*
D13*
%TO.P,R5,2*%
%TO.N,/3.3V_Board*%
X71000000Y-75820000D03*
%TD*%
D12*
%TO.P,R3,1*%
%TO.N,Net-(U1-D1)*%
X71000000Y-48580000D03*
D13*
%TO.P,R3,2*%
%TO.N,/3.3V_Board*%
X71000000Y-56200000D03*
%TD*%
D20*
%TO.P,U27,1,D3*%
%TO.N,Net-(U27-D3)*%
X128275600Y-24330000D03*
%TO.P,U27,2,D2*%
%TO.N,Net-(U27-D2)*%
X128275600Y-25600000D03*
%TO.P,U27,3,D1*%
%TO.N,Net-(U27-D1)*%
X128275600Y-26870000D03*
%TO.P,U27,4,D0*%
%TO.N,Net-(U27-D0)*%
X128275600Y-28140000D03*
%TO.P,U27,5,Y*%
%TO.N,unconnected-(U27-Y-Pad5)*%
X128275600Y-29410000D03*
%TO.P,U27,6,W*%
%TO.N,GPIO17{slash}PIN11*%
X128275600Y-30680000D03*
%TO.P,U27,7,\u002AG*%
%TO.N,GND*%
X128275600Y-31950000D03*
%TO.P,U27,8,GND*%
X128275600Y-33220000D03*
%TO.P,U27,9,C*%
%TO.N,GPIO18{slash}PIN12*%
X133000000Y-33220000D03*
%TO.P,U27,10,B*%
%TO.N,GPIO15{slash}PIN10*%
X133000000Y-31950000D03*
%TO.P,U27,11,A*%
%TO.N,GPIO14{slash}PIN8*%
X133000000Y-30680000D03*
%TO.P,U27,12,D7*%
%TO.N,Net-(U27-D7)*%
X133000000Y-29410000D03*
%TO.P,U27,13,D6*%
%TO.N,Net-(U27-D6)*%
X133000000Y-28140000D03*
%TO.P,U27,14,D5*%
%TO.N,Net-(U27-D5)*%
X133000000Y-26870000D03*
%TO.P,U27,15,D4*%
%TO.N,Net-(U27-D4)*%
X133000000Y-25600000D03*
%TO.P,U27,16,VCC*%
%TO.N,/3.3V_Board*%
X133000000Y-24330000D03*
%TD*%
D14*
%TO.P,C2,1*%
%TO.N,Net-(U1-D4)*%
X70600000Y-81258800D03*
%TO.P,C2,2*%
%TO.N,GND2*%
X70600000Y-79200000D03*
%TD*%
%TO.P,C30,1*%
%TO.N,Net-(U27-D5)*%
X135400000Y-92458800D03*
%TO.P,C30,2*%
%TO.N,GND2*%
X135400000Y-90400000D03*
%TD*%
D12*
%TO.P,R14,1*%
%TO.N,Net-(U13-VOUT)*%
X79400000Y-95620000D03*
D13*
%TO.P,R14,2*%
%TO.N,/3.3V_Board*%
X79400000Y-88000000D03*
%TD*%
D12*
%TO.P,R22,1*%
%TO.N,Net-(U17-D5)*%
X102800000Y-94820000D03*
D13*
%TO.P,R22,2*%
%TO.N,/3.3V_Board*%
X102800000Y-87200000D03*
%TD*%
D14*
%TO.P,C5,1*%
%TO.N,Net-(U1-D3)*%
X59000000Y-70341200D03*
%TO.P,C5,2*%
%TO.N,GND2*%
X59000000Y-72400000D03*
%TD*%
D19*
%TO.P,U43,1,VCC*%
%TO.N,/3.3V_Board*%
X154800000Y-90200000D03*
D18*
%TO.P,U43,2,VOUT*%
%TO.N,Net-(U37-D5)*%
X154800000Y-93200000D03*
%TO.P,U43,3,GND*%
%TO.N,GND2*%
X154800000Y-91700000D03*
%TD*%
D17*
%TO.P,U21,1,VCC*%
%TO.N,/3.3V_Board*%
X108600000Y-74000000D03*
D18*
%TO.P,U21,2,VOUT*%
%TO.N,Net-(U17-D3)*%
X108600000Y-71000000D03*
%TO.P,U21,3,GND*%
%TO.N,GND2*%
X108600000Y-72500000D03*
%TD*%
D12*
%TO.P,R1,1*%
%TO.N,Net-(TP6-A)*%
X70950000Y-38800000D03*
D13*
%TO.P,R1,2*%
%TO.N,/3.3V_Board*%
X70950000Y-46420000D03*
%TD*%
D19*
%TO.P,U35,1,VCC*%
%TO.N,/3.3V_Board*%
X130000000Y-99200000D03*
D18*
%TO.P,U35,2,VOUT*%
%TO.N,Net-(U27-D6)*%
X130000000Y-102200000D03*
%TO.P,U35,3,GND*%
%TO.N,GND2*%
X130000000Y-100700000D03*
%TD*%
D19*
%TO.P,U5,1,VCC*%
%TO.N,/3.3V_Board*%
X65200000Y-108800000D03*
D18*
%TO.P,U5,2,VOUT*%
%TO.N,Net-(U1-D7)*%
X65200000Y-111800000D03*
%TO.P,U5,3,GND*%
%TO.N,GND2*%
X65200000Y-110300000D03*
%TD*%
D12*
%TO.P,R13,1*%
%TO.N,Net-(U12-VOUT)*%
X79400000Y-85820000D03*
D13*
%TO.P,R13,2*%
%TO.N,/3.3V_Board*%
X79400000Y-78200000D03*
%TD*%
D12*
%TO.P,R20,1*%
%TO.N,Net-(U17-D3)*%
X115400000Y-67800000D03*
D13*
%TO.P,R20,2*%
%TO.N,/3.3V_Board*%
X115400000Y-75420000D03*
%TD*%
D14*
%TO.P,C31,1*%
%TO.N,Net-(U27-D6)*%
X135200000Y-101858800D03*
%TO.P,C31,2*%
%TO.N,GND2*%
X135200000Y-99800000D03*
%TD*%
%TO.P,C3,1*%
%TO.N,Net-(U1-D1)*%
X59200000Y-50941200D03*
%TO.P,C3,2*%
%TO.N,GND2*%
X59200000Y-53000000D03*
%TD*%
%TO.P,C37,1*%
%TO.N,Net-(U37-D4)*%
X159800000Y-83058800D03*
%TO.P,C37,2*%
%TO.N,GND2*%
X159800000Y-81000000D03*
%TD*%
D17*
%TO.P,U11,1,VCC*%
%TO.N,/3.3V_Board*%
X85600000Y-73200000D03*
D18*
%TO.P,U11,2,VOUT*%
%TO.N,Net-(U11-VOUT)*%
X85600000Y-70200000D03*
%TO.P,U11,3,GND*%
%TO.N,GND2*%
X85600000Y-71700000D03*
%TD*%
D17*
%TO.P,U15,1,VCC*%
%TO.N,/3.3V_Board*%
X64400000Y-53600000D03*
D18*
%TO.P,U15,2,VOUT*%
%TO.N,Net-(U1-D1)*%
X64400000Y-50600000D03*
%TO.P,U15,3,GND*%
%TO.N,GND2*%
X64400000Y-52100000D03*
%TD*%
D14*
%TO.P,C26,1*%
%TO.N,Net-(U27-D1)*%
X125200000Y-50170600D03*
%TO.P,C26,2*%
%TO.N,GND2*%
X125200000Y-52229400D03*
%TD*%
D17*
%TO.P,U33,1,VCC*%
%TO.N,/3.3V_Board*%
X64200000Y-73000000D03*
D18*
%TO.P,U33,2,VOUT*%
%TO.N,Net-(U1-D3)*%
X64200000Y-70000000D03*
%TO.P,U33,3,GND*%
%TO.N,GND2*%
X64200000Y-71500000D03*
%TD*%
D17*
%TO.P,U19,1,VCC*%
%TO.N,/3.3V_Board*%
X108800000Y-53600000D03*
D18*
%TO.P,U19,2,VOUT*%
%TO.N,Net-(U17-D1)*%
X108800000Y-50600000D03*
%TO.P,U19,3,GND*%
%TO.N,GND2*%
X108800000Y-52100000D03*
%TD*%
D17*
%TO.P,U41,1,VCC*%
%TO.N,/3.3V_Board*%
X153800000Y-71800000D03*
D18*
%TO.P,U41,2,VOUT*%
%TO.N,Net-(U37-D3)*%
X153800000Y-68800000D03*
%TO.P,U41,3,GND*%
%TO.N,GND2*%
X153800000Y-70300000D03*
%TD*%
D21*
%TO.P,TP7,1,A*%
%TO.N,/3.3V_Board*%
X41200000Y-38125000D03*
D22*
%TO.P,TP7,2,B*%
X41200000Y-40665000D03*
%TD*%
D12*
%TO.P,R19,1*%
%TO.N,Net-(U17-D2)*%
X115400000Y-57980000D03*
D13*
%TO.P,R19,2*%
%TO.N,/3.3V_Board*%
X115400000Y-65600000D03*
%TD*%
D23*
%TO.P,IC1,1,INPUT*%
%TO.N,5V Board*%
X28460000Y-39250000D03*
D24*
%TO.P,IC1,2,GND*%
%TO.N,GND3*%
X31000000Y-39250000D03*
%TO.P,IC1,3,OUTPUT*%
%TO.N,/3.3V_Board*%
X33540000Y-39250000D03*
%TD*%
D12*
%TO.P,R27,1*%
%TO.N,Net-(U27-D2)*%
X137200000Y-57400000D03*
D13*
%TO.P,R27,2*%
%TO.N,/3.3V_Board*%
X137200000Y-65020000D03*
%TD*%
D21*
%TO.P,TP2,1,A*%
%TO.N,GPIO3{slash}PIN5*%
X76400000Y-28925000D03*
D22*
%TO.P,TP2,2,B*%
%TO.N,GND*%
X76400000Y-31465000D03*
%TD*%
D21*
%TO.P,TP4,1,A*%
%TO.N,GPIO17{slash}PIN11*%
X121750000Y-28975000D03*
D22*
%TO.P,TP4,2,B*%
%TO.N,GND*%
X121750000Y-31515000D03*
%TD*%
D17*
%TO.P,U10,1,VCC*%
%TO.N,/3.3V_Board*%
X85600000Y-64400000D03*
D18*
%TO.P,U10,2,VOUT*%
%TO.N,Net-(U10-VOUT)*%
X85600000Y-61400000D03*
%TO.P,U10,3,GND*%
%TO.N,GND2*%
X85600000Y-62900000D03*
%TD*%
D12*
%TO.P,R8,1*%
%TO.N,Net-(U1-D7)*%
X58600000Y-113800000D03*
D13*
%TO.P,R8,2*%
%TO.N,/3.3V_Board*%
X58600000Y-106180000D03*
%TD*%
D12*
%TO.P,R7,1*%
%TO.N,Net-(U1-D6)*%
X58600000Y-104010000D03*
D13*
%TO.P,R7,2*%
%TO.N,/3.3V_Board*%
X58600000Y-96390000D03*
%TD*%
D12*
%TO.P,R40,1*%
%TO.N,Net-(U37-D7)*%
X148000000Y-115400000D03*
D13*
%TO.P,R40,2*%
%TO.N,/3.3V_Board*%
X148000000Y-107780000D03*
%TD*%
D12*
%TO.P,R38,1*%
%TO.N,Net-(U37-D5)*%
X148000000Y-95820000D03*
D13*
%TO.P,R38,2*%
%TO.N,/3.3V_Board*%
X148000000Y-88200000D03*
%TD*%
D12*
%TO.P,R4,1*%
%TO.N,Net-(U1-D2)*%
X71000000Y-58400000D03*
D13*
%TO.P,R4,2*%
%TO.N,/3.3V_Board*%
X71000000Y-66020000D03*
%TD*%
D21*
%TO.P,TP3,1,A*%
%TO.N,GPIO4{slash}PIN7*%
X101200000Y-28860000D03*
D22*
%TO.P,TP3,2,B*%
%TO.N,GND*%
X101200000Y-31400000D03*
%TD*%
D19*
%TO.P,U34,1,VCC*%
%TO.N,/3.3V_Board*%
X130200000Y-89600000D03*
D18*
%TO.P,U34,2,VOUT*%
%TO.N,Net-(U27-D5)*%
X130200000Y-92600000D03*
%TO.P,U34,3,GND*%
%TO.N,GND2*%
X130200000Y-91100000D03*
%TD*%
D14*
%TO.P,C15,1*%
%TO.N,Net-(U14-VOUT)*%
X91600000Y-103258800D03*
%TO.P,C15,2*%
%TO.N,GND2*%
X91600000Y-101200000D03*
%TD*%
%TO.P,C40,1*%
%TO.N,Net-(U37-D7)*%
X160000000Y-112658800D03*
%TO.P,C40,2*%
%TO.N,GND2*%
X160000000Y-110600000D03*
%TD*%
D12*
%TO.P,R18,1*%
%TO.N,Net-(U17-D1)*%
X115400000Y-48180000D03*
D13*
%TO.P,R18,2*%
%TO.N,/3.3V_Board*%
X115400000Y-55800000D03*
%TD*%
D12*
%TO.P,R39,1*%
%TO.N,Net-(U37-D6)*%
X148000000Y-105620000D03*
D13*
%TO.P,R39,2*%
%TO.N,/3.3V_Board*%
X148000000Y-98000000D03*
%TD*%
D17*
%TO.P,U18,1,VCC*%
%TO.N,/3.3V_Board*%
X108800000Y-43800000D03*
D18*
%TO.P,U18,2,VOUT*%
%TO.N,Net-(U17-D0)*%
X108800000Y-40800000D03*
%TO.P,U18,3,GND*%
%TO.N,GND2*%
X108800000Y-42300000D03*
%TD*%
D12*
%TO.P,R33,1*%
%TO.N,Net-(U37-D0)*%
X160400000Y-37380000D03*
D13*
%TO.P,R33,2*%
%TO.N,/3.3V_Board*%
X160400000Y-45000000D03*
%TD*%
D20*
%TO.P,U37,1,D3*%
%TO.N,Net-(U37-D3)*%
X151837800Y-24155000D03*
%TO.P,U37,2,D2*%
%TO.N,Net-(U37-D2)*%
X151837800Y-25425000D03*
%TO.P,U37,3,D1*%
%TO.N,Net-(U37-D1)*%
X151837800Y-26695000D03*
%TO.P,U37,4,D0*%
%TO.N,Net-(U37-D0)*%
X151837800Y-27965000D03*
%TO.P,U37,5,Y*%
%TO.N,unconnected-(U37-Y-Pad5)*%
X151837800Y-29235000D03*
%TO.P,U37,6,W*%
%TO.N,GPIO27{slash}PIN15*%
X151837800Y-30505000D03*
%TO.P,U37,7,\u002AG*%
%TO.N,GND*%
X151837800Y-31775000D03*
%TO.P,U37,8,GND*%
X151837800Y-33045000D03*
%TO.P,U37,9,C*%
%TO.N,GPIO18{slash}PIN12*%
X156562200Y-33045000D03*
%TO.P,U37,10,B*%
%TO.N,GPIO15{slash}PIN10*%
X156562200Y-31775000D03*
%TO.P,U37,11,A*%
%TO.N,GPIO14{slash}PIN8*%
X156562200Y-30505000D03*
%TO.P,U37,12,D7*%
%TO.N,Net-(U37-D7)*%
X156562200Y-29235000D03*
%TO.P,U37,13,D6*%
%TO.N,Net-(U37-D6)*%
X156562200Y-27965000D03*
%TO.P,U37,14,D5*%
%TO.N,Net-(U37-D5)*%
X156562200Y-26695000D03*
%TO.P,U37,15,D4*%
%TO.N,Net-(U37-D4)*%
X156562200Y-25425000D03*
%TO.P,U37,16,VCC*%
%TO.N,/3.3V_Board*%
X156562200Y-24155000D03*
%TD*%
D17*
%TO.P,U24,1,VCC*%
%TO.N,/3.3V_Board*%
X64200000Y-63400000D03*
D18*
%TO.P,U24,2,VOUT*%
%TO.N,Net-(U1-D2)*%
X64200000Y-60400000D03*
%TO.P,U24,3,GND*%
%TO.N,GND2*%
X64200000Y-61900000D03*
%TD*%
D14*
%TO.P,C32,1*%
%TO.N,Net-(U27-D7)*%
X135200000Y-111658800D03*
%TO.P,C32,2*%
%TO.N,GND2*%
X135200000Y-109600000D03*
%TD*%
D19*
%TO.P,U3,1,VCC*%
%TO.N,/3.3V_Board*%
X65400000Y-88300000D03*
D18*
%TO.P,U3,2,VOUT*%
%TO.N,Net-(U1-D5)*%
X65400000Y-91300000D03*
%TO.P,U3,3,GND*%
%TO.N,GND2*%
X65400000Y-89800000D03*
%TD*%
D19*
%TO.P,U22,1,VCC*%
%TO.N,/3.3V_Board*%
X109400000Y-80600000D03*
D18*
%TO.P,U22,2,VOUT*%
%TO.N,Net-(U17-D4)*%
X109400000Y-83600000D03*
%TO.P,U22,3,GND*%
%TO.N,GND2*%
X109400000Y-82100000D03*
%TD*%
D14*
%TO.P,C33,1*%
%TO.N,Net-(U37-D0)*%
X148600000Y-39541200D03*
%TO.P,C33,2*%
%TO.N,GND2*%
X148600000Y-41600000D03*
%TD*%
D17*
%TO.P,U9,1,VCC*%
%TO.N,/3.3V_Board*%
X85600000Y-53800000D03*
D18*
%TO.P,U9,2,VOUT*%
%TO.N,Net-(U7-D1)*%
X85600000Y-50800000D03*
%TO.P,U9,3,GND*%
%TO.N,GND2*%
X85600000Y-52300000D03*
%TD*%
D12*
%TO.P,R31,1*%
%TO.N,Net-(U27-D6)*%
X123200000Y-104600000D03*
D13*
%TO.P,R31,2*%
%TO.N,/3.3V_Board*%
X123200000Y-96980000D03*
%TD*%
D21*
%TO.P,TP6,1,A*%
%TO.N,Net-(TP6-A)*%
X52600000Y-40710000D03*
D22*
%TO.P,TP6,2,B*%
%TO.N,GND2*%
X52600000Y-43250000D03*
%TD*%
D17*
%TO.P,U28,1,VCC*%
%TO.N,/3.3V_Board*%
X130400000Y-43000000D03*
D18*
%TO.P,U28,2,VOUT*%
%TO.N,Net-(U27-D0)*%
X130400000Y-40000000D03*
%TO.P,U28,3,GND*%
%TO.N,GND2*%
X130400000Y-41500000D03*
%TD*%
D12*
%TO.P,R23,1*%
%TO.N,Net-(U17-D6)*%
X102800000Y-104620000D03*
D13*
%TO.P,R23,2*%
%TO.N,/3.3V_Board*%
X102800000Y-97000000D03*
%TD*%
D19*
%TO.P,U45,1,VCC*%
%TO.N,/3.3V_Board*%
X154800000Y-109800000D03*
D18*
%TO.P,U45,2,VOUT*%
%TO.N,Net-(U37-D7)*%
X154800000Y-112800000D03*
%TO.P,U45,3,GND*%
%TO.N,GND2*%
X154800000Y-111300000D03*
%TD*%
D14*
%TO.P,C20,1*%
%TO.N,Net-(U17-D3)*%
X103400000Y-70941200D03*
%TO.P,C20,2*%
%TO.N,GND2*%
X103400000Y-73000000D03*
%TD*%
%TO.P,C16,1*%
%TO.N,Net-(U16-VOUT)*%
X91400000Y-112658800D03*
%TO.P,C16,2*%
%TO.N,GND2*%
X91400000Y-110600000D03*
%TD*%
%TO.P,C23,1*%
%TO.N,Net-(U17-D6)*%
X114600000Y-102258800D03*
%TO.P,C23,2*%
%TO.N,GND2*%
X114600000Y-100200000D03*
%TD*%
D19*
%TO.P,U23,1,VCC*%
%TO.N,/3.3V_Board*%
X109400000Y-89600000D03*
D18*
%TO.P,U23,2,VOUT*%
%TO.N,Net-(U17-D5)*%
X109400000Y-92600000D03*
%TO.P,U23,3,GND*%
%TO.N,GND2*%
X109400000Y-91100000D03*
%TD*%
D17*
%TO.P,U6,1,VCC*%
%TO.N,/3.3V_Board*%
X64400000Y-43800000D03*
D18*
%TO.P,U6,2,VOUT*%
%TO.N,Net-(TP6-A)*%
X64400000Y-40800000D03*
%TO.P,U6,3,GND*%
%TO.N,GND2*%
X64400000Y-42300000D03*
%TD*%
D19*
%TO.P,U26,1,VCC*%
%TO.N,/3.3V_Board*%
X109400000Y-109400000D03*
D18*
%TO.P,U26,2,VOUT*%
%TO.N,Net-(U17-D7)*%
X109400000Y-112400000D03*
%TO.P,U26,3,GND*%
%TO.N,GND2*%
X109400000Y-110900000D03*
%TD*%
D12*
%TO.P,R25,1*%
%TO.N,Net-(U27-D0)*%
X137200000Y-37800000D03*
D13*
%TO.P,R25,2*%
%TO.N,/3.3V_Board*%
X137200000Y-45420000D03*
%TD*%
D14*
%TO.P,C11,1*%
%TO.N,Net-(U10-VOUT)*%
X80400000Y-61541200D03*
%TO.P,C11,2*%
%TO.N,GND2*%
X80400000Y-63600000D03*
%TD*%
D12*
%TO.P,R21,1*%
%TO.N,Net-(U17-D4)*%
X102800000Y-85020000D03*
D13*
%TO.P,R21,2*%
%TO.N,/3.3V_Board*%
X102800000Y-77400000D03*
%TD*%
D19*
%TO.P,U16,1,VCC*%
%TO.N,/3.3V_Board*%
X86200000Y-109600000D03*
D18*
%TO.P,U16,2,VOUT*%
%TO.N,Net-(U16-VOUT)*%
X86200000Y-112600000D03*
%TO.P,U16,3,GND*%
%TO.N,GND2*%
X86200000Y-111100000D03*
%TD*%
D12*
%TO.P,R15,1*%
%TO.N,Net-(U14-VOUT)*%
X79400000Y-105620000D03*
D13*
%TO.P,R15,2*%
%TO.N,/3.3V_Board*%
X79400000Y-98000000D03*
%TD*%
D14*
%TO.P,C29,1*%
%TO.N,Net-(U27-D4)*%
X135800000Y-82429400D03*
%TO.P,C29,2*%
%TO.N,GND2*%
X135800000Y-80370600D03*
%TD*%
%TO.P,C17,1*%
%TO.N,Net-(U17-D0)*%
X103600000Y-41000000D03*
%TO.P,C17,2*%
%TO.N,GND2*%
X103600000Y-43058800D03*
%TD*%
%TO.P,C34,1*%
%TO.N,Net-(U37-D1)*%
X148600000Y-49170600D03*
%TO.P,C34,2*%
%TO.N,GND2*%
X148600000Y-51229400D03*
%TD*%
D12*
%TO.P,R10,1*%
%TO.N,Net-(U7-D1)*%
X92200000Y-48800000D03*
D13*
%TO.P,R10,2*%
%TO.N,/3.3V_Board*%
X92200000Y-56420000D03*
%TD*%
D14*
%TO.P,C24,1*%
%TO.N,Net-(U17-D7)*%
X114600000Y-112400000D03*
%TO.P,C24,2*%
%TO.N,GND2*%
X114600000Y-110341200D03*
%TD*%
D19*
%TO.P,U4,1,VCC*%
%TO.N,/3.3V_Board*%
X65350000Y-98800000D03*
D18*
%TO.P,U4,2,VOUT*%
%TO.N,Net-(U1-D6)*%
X65350000Y-101800000D03*
%TO.P,U4,3,GND*%
%TO.N,GND2*%
X65350000Y-100300000D03*
%TD*%
D21*
%TO.P,TP1,1,A*%
%TO.N,GPIO2{slash}PIN3*%
X66075000Y-36800000D03*
D22*
%TO.P,TP1,2,B*%
%TO.N,GND*%
X63535000Y-36800000D03*
%TD*%
D19*
%TO.P,U36,1,VCC*%
%TO.N,/3.3V_Board*%
X130000000Y-108800000D03*
D18*
%TO.P,U36,2,VOUT*%
%TO.N,Net-(U27-D7)*%
X130000000Y-111800000D03*
%TO.P,U36,3,GND*%
%TO.N,GND2*%
X130000000Y-110300000D03*
%TD*%
D12*
%TO.P,R28,1*%
%TO.N,Net-(U27-D3)*%
X137200000Y-67200000D03*
D13*
%TO.P,R28,2*%
%TO.N,/3.3V_Board*%
X137200000Y-74820000D03*
%TD*%
D19*
%TO.P,U2,1,VCC*%
%TO.N,/3.3V_Board*%
X65350000Y-79100000D03*
D18*
%TO.P,U2,2,VOUT*%
%TO.N,Net-(U1-D4)*%
X65350000Y-82100000D03*
%TO.P,U2,3,GND*%
%TO.N,GND2*%
X65350000Y-80600000D03*
%TD*%
D14*
%TO.P,C36,1*%
%TO.N,Net-(U37-D3)*%
X148600000Y-69000000D03*
%TO.P,C36,2*%
%TO.N,GND2*%
X148600000Y-71058800D03*
%TD*%
D12*
%TO.P,R17,1*%
%TO.N,Net-(U17-D0)*%
X115400000Y-38380000D03*
D13*
%TO.P,R17,2*%
%TO.N,/3.3V_Board*%
X115400000Y-46000000D03*
%TD*%
D12*
%TO.P,R26,1*%
%TO.N,Net-(U27-D1)*%
X137200000Y-47600000D03*
D13*
%TO.P,R26,2*%
%TO.N,/3.3V_Board*%
X137200000Y-55220000D03*
%TD*%
D12*
%TO.P,R2,1*%
%TO.N,Net-(U1-D4)*%
X58600000Y-84400000D03*
D13*
%TO.P,R2,2*%
%TO.N,/3.3V_Board*%
X58600000Y-76780000D03*
%TD*%
D21*
%TO.P,TP5,1,A*%
%TO.N,GPIO27{slash}PIN15*%
X144400000Y-28260000D03*
D22*
%TO.P,TP5,2,B*%
%TO.N,GND*%
X144400000Y-30800000D03*
%TD*%
D17*
%TO.P,U31,1,VCC*%
%TO.N,/3.3V_Board*%
X130400000Y-72400000D03*
D18*
%TO.P,U31,2,VOUT*%
%TO.N,Net-(U27-D3)*%
X130400000Y-69400000D03*
%TO.P,U31,3,GND*%
%TO.N,GND2*%
X130400000Y-70900000D03*
%TD*%
D14*
%TO.P,C27,1*%
%TO.N,Net-(U27-D2)*%
X125200000Y-60000000D03*
%TO.P,C27,2*%
%TO.N,GND2*%
X125200000Y-62058800D03*
%TD*%
D12*
%TO.P,R36,1*%
%TO.N,Net-(U37-D3)*%
X160400000Y-66800000D03*
D13*
%TO.P,R36,2*%
%TO.N,/3.3V_Board*%
X160400000Y-74420000D03*
%TD*%
D14*
%TO.P,C35,1*%
%TO.N,Net-(U37-D2)*%
X148600000Y-59341200D03*
%TO.P,C35,2*%
%TO.N,GND2*%
X148600000Y-61400000D03*
%TD*%
%TO.P,C7,1*%
%TO.N,Net-(U1-D6)*%
X70600000Y-100858800D03*
%TO.P,C7,2*%
%TO.N,GND2*%
X70600000Y-98800000D03*
%TD*%
%TO.P,C21,1*%
%TO.N,Net-(U17-D4)*%
X114400000Y-83258800D03*
%TO.P,C21,2*%
%TO.N,GND2*%
X114400000Y-81200000D03*
%TD*%
D12*
%TO.P,R34,1*%
%TO.N,Net-(U37-D1)*%
X160400000Y-47190000D03*
D13*
%TO.P,R34,2*%
%TO.N,/3.3V_Board*%
X160400000Y-54810000D03*
%TD*%
D12*
%TO.P,R32,1*%
%TO.N,Net-(U27-D7)*%
X123200000Y-114420000D03*
D13*
%TO.P,R32,2*%
%TO.N,/3.3V_Board*%
X123200000Y-106800000D03*
%TD*%
D12*
%TO.P,R30,1*%
%TO.N,Net-(U27-D5)*%
X123200000Y-94800000D03*
D13*
%TO.P,R30,2*%
%TO.N,/3.3V_Board*%
X123200000Y-87180000D03*
%TD*%
D12*
%TO.P,R11,1*%
%TO.N,Net-(U10-VOUT)*%
X92200000Y-58600000D03*
D13*
%TO.P,R11,2*%
%TO.N,/3.3V_Board*%
X92200000Y-66220000D03*
%TD*%
D20*
%TO.P,U1,1,D3*%
%TO.N,Net-(U1-D3)*%
X62437800Y-24955000D03*
%TO.P,U1,2,D2*%
%TO.N,Net-(U1-D2)*%
X62437800Y-26225000D03*
%TO.P,U1,3,D1*%
%TO.N,Net-(U1-D1)*%
X62437800Y-27495000D03*
%TO.P,U1,4,D0*%
%TO.N,Net-(TP6-A)*%
X62437800Y-28765000D03*
%TO.P,U1,5,Y*%
%TO.N,unconnected-(U1-Y-Pad5)*%
X62437800Y-30035000D03*
%TO.P,U1,6,W*%
%TO.N,GPIO2{slash}PIN3*%
X62437800Y-31305000D03*
%TO.P,U1,7,\u002AG*%
%TO.N,GND*%
X62437800Y-32575000D03*
%TO.P,U1,8,GND*%
X62437800Y-33845000D03*
%TO.P,U1,9,C*%
%TO.N,GPIO18{slash}PIN12*%
X67162200Y-33845000D03*
%TO.P,U1,10,B*%
%TO.N,GPIO15{slash}PIN10*%
X67162200Y-32575000D03*
%TO.P,U1,11,A*%
%TO.N,GPIO14{slash}PIN8*%
X67162200Y-31305000D03*
%TO.P,U1,12,D7*%
%TO.N,Net-(U1-D7)*%
X67162200Y-30035000D03*
%TO.P,U1,13,D6*%
%TO.N,Net-(U1-D6)*%
X67162200Y-28765000D03*
%TO.P,U1,14,D5*%
%TO.N,Net-(U1-D5)*%
X67162200Y-27495000D03*
%TO.P,U1,15,D4*%
%TO.N,Net-(U1-D4)*%
X67162200Y-26225000D03*
%TO.P,U1,16,VCC*%
%TO.N,/3.3V_Board*%
X67162200Y-24955000D03*
%TD*%
D19*
%TO.P,U44,1,VCC*%
%TO.N,/3.3V_Board*%
X154800000Y-100200000D03*
D18*
%TO.P,U44,2,VOUT*%
%TO.N,Net-(U37-D6)*%
X154800000Y-103200000D03*
%TO.P,U44,3,GND*%
%TO.N,GND2*%
X154800000Y-101700000D03*
%TD*%
D14*
%TO.P,C14,1*%
%TO.N,Net-(U13-VOUT)*%
X91400000Y-93058800D03*
%TO.P,C14,2*%
%TO.N,GND2*%
X91400000Y-91000000D03*
%TD*%
D19*
%TO.P,U32,1,VCC*%
%TO.N,/3.3V_Board*%
X130600000Y-79600000D03*
D18*
%TO.P,U32,2,VOUT*%
%TO.N,Net-(U27-D4)*%
X130600000Y-82600000D03*
%TO.P,U32,3,GND*%
%TO.N,GND2*%
X130600000Y-81100000D03*
%TD*%
D25*
%TO.P,J1,1,3.3V*%
%TO.N,unconnected-(J1-3.3V-Pad1)*%
X31800000Y-53120000D03*
D22*
%TO.P,J1,2,5V*%
%TO.N,5V Board*%
X34340000Y-53120000D03*
%TO.P,J1,3,GPIO2*%
%TO.N,GPIO2{slash}PIN3*%
X31800000Y-55660000D03*
%TO.P,J1,4,5V*%
%TO.N,unconnected-(J1-5V-Pad4)*%
X34340000Y-55660000D03*
%TO.P,J1,5,GPIO3*%
%TO.N,GPIO3{slash}PIN5*%
X31800000Y-58200000D03*
%TO.P,J1,6,GND*%
%TO.N,GND3*%
X34340000Y-58200000D03*
%TO.P,J1,7,GPIO4*%
%TO.N,GPIO4{slash}PIN7*%
X31800000Y-60740000D03*
%TO.P,J1,8,GPIO14*%
%TO.N,GPIO14{slash}PIN8*%
X34340000Y-60740000D03*
%TO.P,J1,9,GND*%
%TO.N,unconnected-(J1-GND-Pad9)*%
X31800000Y-63280000D03*
%TO.P,J1,10,GPIO15*%
%TO.N,GPIO15{slash}PIN10*%
X34340000Y-63280000D03*
%TO.P,J1,11,GPIO17*%
%TO.N,GPIO17{slash}PIN11*%
X31800000Y-65820000D03*
%TO.P,J1,12,GPIO18*%
%TO.N,GPIO18{slash}PIN12*%
X34340000Y-65820000D03*
%TO.P,J1,13,GPIO27*%
%TO.N,GPIO27{slash}PIN15*%
X31800000Y-68360000D03*
%TO.P,J1,14,GND*%
%TO.N,unconnected-(J1-GND-Pad14)*%
X34340000Y-68360000D03*
%TO.P,J1,15,GPIO22*%
%TO.N,unconnected-(J1-GPIO22-Pad15)*%
X31800000Y-70900000D03*
%TO.P,J1,16,GPIO23*%
%TO.N,unconnected-(J1-GPIO23-Pad16)*%
X34340000Y-70900000D03*
%TO.P,J1,17,3.3V*%
%TO.N,unconnected-(J1-3.3V-Pad17)*%
X31800000Y-73440000D03*
%TO.P,J1,18,GPIO24*%
%TO.N,unconnected-(J1-GPIO24-Pad18)*%
X34340000Y-73440000D03*
%TO.P,J1,19,GPIO10*%
%TO.N,unconnected-(J1-GPIO10-Pad19)*%
X31800000Y-75980000D03*
%TO.P,J1,20,GND*%
%TO.N,unconnected-(J1-GND-Pad20)*%
X34340000Y-75980000D03*
%TO.P,J1,21,GPIO9*%
%TO.N,unconnected-(J1-GPIO9-Pad21)*%
X31800000Y-78520000D03*
%TO.P,J1,22,GPIO25*%
%TO.N,unconnected-(J1-GPIO25-Pad22)*%
X34340000Y-78520000D03*
%TO.P,J1,23,GPIO11*%
%TO.N,unconnected-(J1-GPIO11-Pad23)*%
X31800000Y-81060000D03*
%TO.P,J1,24,GPIO8*%
%TO.N,unconnected-(J1-GPIO8-Pad24)*%
X34340000Y-81060000D03*
%TO.P,J1,25,GND*%
%TO.N,GND*%
X31800000Y-83600000D03*
%TO.P,J1,26,GPIO7*%
%TO.N,unconnected-(J1-GPIO7-Pad26)*%
X34340000Y-83600000D03*
%TO.P,J1,27,GPIO0*%
%TO.N,unconnected-(J1-GPIO0-Pad27)*%
X31800000Y-86140000D03*
%TO.P,J1,28,GPIO1*%
%TO.N,unconnected-(J1-GPIO1-Pad28)*%
X34340000Y-86140000D03*
%TO.P,J1,29,GPIO5*%
%TO.N,unconnected-(J1-GPIO5-Pad29)*%
X31800000Y-88680000D03*
%TO.P,J1,30,GND*%
%TO.N,unconnected-(J1-GND-Pad30)*%
X34340000Y-88680000D03*
%TO.P,J1,31,GPIO6*%
%TO.N,unconnected-(J1-GPIO6-Pad31)*%
X31800000Y-91220000D03*
%TO.P,J1,32,GPIO12*%
%TO.N,unconnected-(J1-GPIO12-Pad32)*%
X34340000Y-91220000D03*
%TO.P,J1,33,GPIO13*%
%TO.N,unconnected-(J1-GPIO13-Pad33)*%
X31800000Y-93760000D03*
%TO.P,J1,34,GND*%
%TO.N,unconnected-(J1-GND-Pad34)*%
X34340000Y-93760000D03*
%TO.P,J1,35,GPIO19*%
%TO.N,unconnected-(J1-GPIO19-Pad35)*%
X31800000Y-96300000D03*
%TO.P,J1,36,GPIO16*%
%TO.N,unconnected-(J1-GPIO16-Pad36)*%
X34340000Y-96300000D03*
%TO.P,J1,37,GPIO26*%
%TO.N,unconnected-(J1-GPIO26-Pad37)*%
X31800000Y-98840000D03*
%TO.P,J1,38,GPIO20*%
%TO.N,unconnected-(J1-GPIO20-Pad38)*%
X34340000Y-98840000D03*
%TO.P,J1,39,GND*%
%TO.N,GND2*%
X31800000Y-101380000D03*
%TO.P,J1,40,GPIO21*%
%TO.N,unconnected-(J1-GPIO21-Pad40)*%
X34340000Y-101380000D03*
%TD*%
D26*
%TO.N,/3.3V_Board*%
X58600000Y-66600000D03*
X58600000Y-56600000D03*
X44250000Y-23750000D03*
X155000000Y-20200000D03*
X111800000Y-23600000D03*
X70600000Y-24955000D03*
X74554657Y-33647927D03*
X133000000Y-22800000D03*
X88200000Y-23400000D03*
%TO.N,Net-(U1-D6)*%
X75000000Y-76800000D03*
X72954657Y-74600000D03*
%TO.N,GPIO2{slash}PIN3*%
X47600000Y-22600000D03*
%TO.N,GPIO17{slash}PIN11*%
X126500000Y-30680000D03*
%TO.N,GPIO27{slash}PIN15*%
X150200000Y-30400000D03*
%TO.N,Net-(U1-D5)*%
X74600000Y-78200000D03*
X73354657Y-77000000D03*
%TO.N,Net-(U1-D7)*%
X75200000Y-75000000D03*
X72400000Y-72200000D03*
%TO.N,GND*%
X92750000Y-34750000D03*
X140750000Y-31250000D03*
X150200000Y-31600000D03*
X126500000Y-32000000D03*
X129250000Y-35000000D03*
X116000000Y-34750000D03*
%TO.N,GPIO15{slash}PIN10*%
X91800000Y-29800000D03*
X146200000Y-21800000D03*
X74000000Y-24600000D03*
X100000000Y-22800000D03*
X136000000Y-31200000D03*
X125200000Y-22000000D03*
X114800000Y-31600000D03*
X69000000Y-32400000D03*
%TO.N,GPIO14{slash}PIN8*%
X124200000Y-21400000D03*
X114400000Y-30600000D03*
X99400000Y-22000000D03*
X91200000Y-28836000D03*
X69000000Y-31200000D03*
X146250000Y-21000000D03*
X73600000Y-23800000D03*
X136000000Y-30000000D03*
%TO.N,GPIO18{slash}PIN12*%
X115400000Y-32600000D03*
X126000000Y-23000000D03*
X136000000Y-32600000D03*
X146200000Y-22800000D03*
X69000000Y-33600000D03*
X92600000Y-30800000D03*
X74600000Y-25600000D03*
X100600000Y-23600000D03*
%TO.N,Net-(U11-VOUT)*%
X78500000Y-37000000D03*
X81600000Y-25400000D03*
%TO.N,Net-(U10-VOUT)*%
X79500000Y-37250000D03*
X81600000Y-26600000D03*
%TO.N,Net-(U12-VOUT)*%
X96000000Y-79750000D03*
X93150000Y-82500000D03*
%TO.N,Net-(U13-VOUT)*%
X95250000Y-89750000D03*
X93150000Y-91750000D03*
%TO.N,Net-(U14-VOUT)*%
X94500000Y-97250000D03*
X93000000Y-102250000D03*
%TO.N,Net-(U7-D0)*%
X81600000Y-29000000D03*
%TO.N,Net-(U7-D1)*%
X80750000Y-37250000D03*
X81600000Y-27800000D03*
%TO.N,Net-(U17-D5)*%
X116250000Y-92250000D03*
X118500000Y-90000000D03*
%TO.N,Net-(U17-D0)*%
X105250000Y-34500000D03*
X105250000Y-30750000D03*
%TO.N,Net-(U17-D1)*%
X104500000Y-35750000D03*
X104738780Y-29493107D03*
%TO.N,Net-(U17-D3)*%
X103500000Y-33500000D03*
X103500000Y-28750000D03*
%TO.N,Net-(U17-D6)*%
X117750000Y-99500000D03*
X116250000Y-101000000D03*
%TO.N,Net-(U17-D4)*%
X116250000Y-83250000D03*
X119250000Y-79250000D03*
%TO.N,Net-(U17-D2)*%
X103750000Y-35000000D03*
X104500000Y-28250000D03*
%TO.N,Net-(U27-D4)*%
X140500000Y-80500000D03*
X137650000Y-82500000D03*
%TO.N,Net-(U27-D5)*%
X139750000Y-90500000D03*
X137250000Y-92500000D03*
%TO.N,Net-(U27-D6)*%
X137000000Y-101250000D03*
X139000000Y-99250000D03*
%TO.N,Net-(U37-D5)*%
X164000000Y-91000000D03*
X161900000Y-92500000D03*
%TO.N,Net-(U37-D6)*%
X163250000Y-101000000D03*
X161750000Y-102500000D03*
%TO.N,Net-(U37-D4)*%
X164750000Y-80000000D03*
X161750000Y-83000000D03*
%TD*%
D27*
%TO.N,/3.3V_Board*%
X85035000Y-98835000D02*
X86400000Y-100200000D01*
X74554657Y-27645343D02*
X74554657Y-33647927D01*
X153800000Y-71800000D02*
X154665000Y-71800000D01*
X70600000Y-24955000D02*
X71864314Y-24955000D01*
X154965000Y-53365000D02*
X153800000Y-52200000D01*
X154965000Y-61900000D02*
X154965000Y-53365000D01*
X154665000Y-62200000D02*
X154965000Y-61900000D01*
X154965000Y-71500000D02*
X154965000Y-63365000D01*
X130600000Y-72600000D02*
X130400000Y-72400000D01*
X67162200Y-24955000D02*
X70600000Y-24955000D01*
X86200000Y-80000000D02*
X86197416Y-80000000D01*
X133000000Y-22800000D02*
X133000000Y-24330000D01*
X85035000Y-81162416D02*
X85035000Y-88835000D01*
X86200000Y-90000000D02*
X85335000Y-90000000D01*
X85035000Y-90300000D02*
X85035000Y-98835000D01*
X154965000Y-43565000D02*
X153800000Y-42400000D01*
X88200000Y-23400000D02*
X88200000Y-24784400D01*
X129482416Y-99715000D02*
X128835000Y-100362416D01*
X129035000Y-90465000D02*
X129900000Y-89600000D01*
X154665000Y-71800000D02*
X154965000Y-71500000D01*
X88200000Y-24784400D02*
X88124400Y-24860000D01*
X111800000Y-23600000D02*
X111800000Y-24984400D01*
X86400000Y-100200000D02*
X85535000Y-100200000D01*
X154600000Y-80100000D02*
X153800000Y-79300000D01*
X71864314Y-24955000D02*
X74554657Y-27645343D01*
X65350000Y-74150000D02*
X65350000Y-79100000D01*
X155000000Y-20200000D02*
X156562200Y-21762200D01*
X86200000Y-73800000D02*
X86200000Y-80000000D01*
X154965000Y-63365000D02*
X153800000Y-62200000D01*
X85335000Y-90000000D02*
X85035000Y-90300000D01*
X58600000Y-56600000D02*
X61600000Y-53600000D01*
X153435000Y-88835000D02*
X153435000Y-80400000D01*
X129485000Y-99715000D02*
X129482416Y-99715000D01*
X130600000Y-79600000D02*
X130600000Y-72600000D01*
D28*
X41500000Y-31957500D02*
X44250000Y-29207500D01*
D27*
X85000000Y-108400000D02*
X86200000Y-109600000D01*
X153800000Y-52200000D02*
X154665000Y-52200000D01*
X85535000Y-100200000D02*
X85000000Y-100735000D01*
X153735000Y-80100000D02*
X154600000Y-80100000D01*
X128835000Y-107635000D02*
X130000000Y-108800000D01*
X154800000Y-90200000D02*
X153435000Y-88835000D01*
X153435000Y-80400000D02*
X153735000Y-80100000D01*
X85600000Y-73200000D02*
X86200000Y-73800000D01*
X129035000Y-98235000D02*
X129035000Y-90465000D01*
X129900000Y-89600000D02*
X130200000Y-89600000D01*
X154965000Y-51900000D02*
X154965000Y-43565000D01*
X153800000Y-62200000D02*
X154665000Y-62200000D01*
D28*
X44250000Y-29207500D02*
X44250000Y-23750000D01*
D27*
X130000000Y-99200000D02*
X129035000Y-98235000D01*
X61600000Y-53600000D02*
X64400000Y-53600000D01*
X61800000Y-63400000D02*
X64200000Y-63400000D01*
X111800000Y-24984400D02*
X111724400Y-25060000D01*
X86197416Y-80000000D02*
X85035000Y-81162416D01*
X64402584Y-43800000D02*
X64400000Y-43800000D01*
X58600000Y-66600000D02*
X61800000Y-63400000D01*
X153800000Y-79300000D02*
X153800000Y-71800000D01*
X85000000Y-100735000D02*
X85000000Y-108400000D01*
X154665000Y-52200000D02*
X154965000Y-51900000D01*
X149720000Y-80100000D02*
X148000000Y-78380000D01*
X154600000Y-80100000D02*
X149720000Y-80100000D01*
X64200000Y-73000000D02*
X65350000Y-74150000D01*
X156562200Y-21762200D02*
X156562200Y-24155000D01*
X128835000Y-100362416D02*
X128835000Y-107635000D01*
X85035000Y-88835000D02*
X86200000Y-90000000D01*
X130000000Y-99200000D02*
X129485000Y-99715000D01*
%TO.N,Net-(U1-D6)*%
X67162200Y-28765000D02*
X71965000Y-28765000D01*
X70735422Y-100858800D02*
X75200000Y-96394222D01*
X70600000Y-100858800D02*
X70735422Y-100858800D01*
X75200000Y-96394222D02*
X75200000Y-77000000D01*
X75200000Y-77000000D02*
X75000000Y-76800000D01*
X69658800Y-101800000D02*
X70600000Y-100858800D01*
X65350000Y-101800000D02*
X69658800Y-101800000D01*
X71965000Y-28765000D02*
X73154657Y-29954657D01*
X73154657Y-74400000D02*
X72954657Y-74600000D01*
X73154657Y-29954657D02*
X73154657Y-74400000D01*
%TO.N,GPIO2{slash}PIN3*%
X31800000Y-55660000D02*
X30597919Y-55660000D01*
X47400000Y-22400000D02*
X47600000Y-22600000D01*
X65225000Y-35950000D02*
X65225000Y-33425000D01*
X61625000Y-31305000D02*
X62437800Y-31305000D01*
X63105000Y-31305000D02*
X62437800Y-31305000D01*
X23200000Y-48262081D02*
X23200000Y-22800000D01*
X66075000Y-36800000D02*
X65225000Y-35950000D01*
X30597919Y-55660000D02*
X23200000Y-48262081D01*
X23600000Y-22400000D02*
X47400000Y-22400000D01*
X23200000Y-22800000D02*
X23600000Y-22400000D01*
X65225000Y-33425000D02*
X63105000Y-31305000D01*
%TO.N,GPIO4{slash}PIN7*%
X103750000Y-31410000D02*
X107000000Y-31410000D01*
X22400000Y-22468628D02*
X22400000Y-51340000D01*
X101200000Y-28860000D02*
X103750000Y-31410000D01*
X101200000Y-28860000D02*
X93940000Y-21600000D01*
X23268628Y-21600000D02*
X22400000Y-22468628D01*
X22400000Y-51340000D02*
X31800000Y-60740000D01*
X93940000Y-21600000D02*
X23268628Y-21600000D01*
%TO.N,GPIO17{slash}PIN11*%
X22000000Y-56020000D02*
X31800000Y-65820000D01*
X116275000Y-21200000D02*
X121750000Y-26675000D01*
X126500000Y-30680000D02*
X128275600Y-30680000D01*
X121750000Y-26675000D02*
X121750000Y-28975000D01*
X116275000Y-21200000D02*
X23102942Y-21200000D01*
X23102942Y-21200000D02*
X22000000Y-22302942D01*
X22000000Y-22302942D02*
X22000000Y-56020000D01*
%TO.N,GPIO27{slash}PIN15*%
X21600000Y-58160000D02*
X21600000Y-22137256D01*
X144000000Y-21500000D02*
X144000000Y-22000000D01*
X151837800Y-30505000D02*
X150305000Y-30505000D01*
X31800000Y-68360000D02*
X21600000Y-58160000D01*
X150305000Y-30505000D02*
X150200000Y-30400000D01*
X143300000Y-20800000D02*
X144000000Y-21500000D01*
X144400000Y-22400000D02*
X144400000Y-28260000D01*
X21600000Y-22137256D02*
X22937256Y-20800000D01*
X144000000Y-22000000D02*
X144400000Y-22400000D01*
X22937256Y-20800000D02*
X143300000Y-20800000D01*
%TO.N,GPIO3{slash}PIN5*%
X69475000Y-22000000D02*
X23434314Y-22000000D01*
X78685000Y-31210000D02*
X83400000Y-31210000D01*
X76400000Y-28925000D02*
X69475000Y-22000000D01*
X23434314Y-22000000D02*
X22800000Y-22634314D01*
X22800000Y-22634314D02*
X22800000Y-49200000D01*
X22800000Y-49200000D02*
X31800000Y-58200000D01*
X76400000Y-28925000D02*
X78685000Y-31210000D01*
%TO.N,Net-(U1-D1)*%
X61625000Y-27495000D02*
X62437800Y-27495000D01*
X58199600Y-49940800D02*
X58199600Y-30920400D01*
X59541200Y-50600000D02*
X59200000Y-50941200D01*
X59200000Y-50941200D02*
X58199600Y-49940800D01*
X64400000Y-50600000D02*
X59541200Y-50600000D01*
X58199600Y-30920400D02*
X61625000Y-27495000D01*
%TO.N,Net-(U1-D5)*%
X70735422Y-90458800D02*
X74600000Y-86594222D01*
X73554657Y-76800000D02*
X73354657Y-77000000D01*
X73554657Y-28954657D02*
X73554657Y-76800000D01*
X65400000Y-91300000D02*
X69758800Y-91300000D01*
X70600000Y-90458800D02*
X70735422Y-90458800D01*
X74600000Y-86594222D02*
X74600000Y-78200000D01*
X72095000Y-27495000D02*
X73554657Y-28954657D01*
X67162200Y-27495000D02*
X72095000Y-27495000D01*
X69758800Y-91300000D02*
X70600000Y-90458800D01*
%TO.N,Net-(U1-D3)*%
X57399600Y-66248129D02*
X59000000Y-67848529D01*
X57399600Y-66248129D02*
X57399600Y-29180400D01*
X59341200Y-70000000D02*
X59000000Y-70341200D01*
X57399600Y-29180400D02*
X61625000Y-24955000D01*
X61625000Y-24955000D02*
X62437800Y-24955000D01*
X59000000Y-67848529D02*
X59000000Y-70341200D01*
X64200000Y-70000000D02*
X59341200Y-70000000D01*
%TO.N,Net-(U1-D4)*%
X70600000Y-81258800D02*
X70443800Y-81415000D01*
X71450400Y-81258800D02*
X70600000Y-81258800D01*
X73954657Y-27611029D02*
X73954657Y-78754543D01*
X67162200Y-26225000D02*
X72568628Y-26225000D01*
X72568628Y-26225000D02*
X73954657Y-27611029D01*
X69758800Y-82100000D02*
X70600000Y-81258800D01*
X73954657Y-78754543D02*
X71450400Y-81258800D01*
X65350000Y-82100000D02*
X69758800Y-82100000D01*
%TO.N,Net-(U1-D2)*%
X58351471Y-57200000D02*
X57799600Y-56648129D01*
X62464744Y-57200000D02*
X58351471Y-57200000D01*
X59000000Y-60741200D02*
X65965000Y-53776200D01*
X65965000Y-53699744D02*
X62464744Y-57200000D01*
X57799600Y-30050400D02*
X61625000Y-26225000D01*
X61625000Y-26225000D02*
X62437800Y-26225000D01*
X64000000Y-60400000D02*
X63658800Y-60741200D01*
X64200000Y-60400000D02*
X64000000Y-60400000D01*
X65965000Y-53776200D02*
X65965000Y-53699744D01*
X57799600Y-56648129D02*
X57799600Y-30050400D01*
X63658800Y-60741200D02*
X59000000Y-60741200D01*
%TO.N,Net-(U1-D7)*%
X70200000Y-110658800D02*
X71050400Y-110658800D01*
X72400000Y-72200000D02*
X72400000Y-30800000D01*
X71050400Y-110658800D02*
X75600000Y-106109200D01*
X72400000Y-30800000D02*
X71635000Y-30035000D01*
X75600000Y-75400000D02*
X75200000Y-75000000D01*
X69058800Y-111800000D02*
X70200000Y-110658800D01*
X65200000Y-111800000D02*
X69058800Y-111800000D01*
X75600000Y-106109200D02*
X75600000Y-75400000D01*
X71635000Y-30035000D02*
X67162200Y-30035000D01*
%TO.N,GND*%
X128275600Y-34025600D02*
X129250000Y-35000000D01*
X63535000Y-34942200D02*
X62437800Y-33845000D01*
X140750000Y-31250000D02*
X141200000Y-30800000D01*
X77415000Y-32480000D02*
X83400000Y-32480000D01*
X128275600Y-31950000D02*
X128275600Y-33220000D01*
X151837800Y-31775000D02*
X150375000Y-31775000D01*
X128275600Y-33220000D02*
X128275600Y-34025600D01*
X63535000Y-36800000D02*
X63535000Y-34942200D01*
X128275600Y-31950000D02*
X126550000Y-31950000D01*
X102480000Y-32680000D02*
X107000000Y-32680000D01*
X107800000Y-34750000D02*
X116000000Y-34750000D01*
X62437800Y-32575000D02*
X62437800Y-33845000D01*
X63110000Y-33845000D02*
X62437800Y-33845000D01*
X107000000Y-33950000D02*
X107800000Y-34750000D01*
X151837800Y-31775000D02*
X151837800Y-33045000D01*
X150375000Y-31775000D02*
X150200000Y-31600000D01*
X76400000Y-31465000D02*
X77415000Y-32480000D01*
X101200000Y-31400000D02*
X102480000Y-32680000D01*
X83400000Y-33750000D02*
X84400000Y-34750000D01*
X126550000Y-31950000D02*
X126500000Y-32000000D01*
X84400000Y-34750000D02*
X92750000Y-34750000D01*
X141200000Y-30800000D02*
X144400000Y-30800000D01*
X107000000Y-32680000D02*
X107000000Y-33950000D01*
X83400000Y-32480000D02*
X83400000Y-33750000D01*
%TO.N,GPIO15{slash}PIN10*%
X45600000Y-52020000D02*
X34340000Y-63280000D01*
X131200000Y-30962800D02*
X131200000Y-22200000D01*
X65200000Y-31425600D02*
X65200000Y-23400000D01*
X65200000Y-23400000D02*
X64800000Y-23000000D01*
X154600000Y-22200000D02*
X154200000Y-21800000D01*
X135250000Y-31950000D02*
X136000000Y-31200000D01*
X113720000Y-32680000D02*
X114800000Y-31600000D01*
X59165686Y-23000000D02*
X45600000Y-36565686D01*
X154200000Y-21800000D02*
X146200000Y-21800000D01*
X131200000Y-22200000D02*
X131000000Y-22000000D01*
X132187200Y-31950000D02*
X131200000Y-30962800D01*
X109800000Y-31568400D02*
X109800000Y-23200000D01*
X110911600Y-32680000D02*
X109800000Y-31568400D01*
X155749400Y-31775000D02*
X154600000Y-30625600D01*
X131000000Y-22000000D02*
X125200000Y-22000000D01*
X133000000Y-31950000D02*
X132187200Y-31950000D01*
X156562200Y-31775000D02*
X155749400Y-31775000D01*
X68825000Y-32575000D02*
X69000000Y-32400000D01*
X86200000Y-31368400D02*
X86200000Y-23200000D01*
X67162200Y-32575000D02*
X66349400Y-32575000D01*
X111724400Y-32680000D02*
X110911600Y-32680000D01*
X67162200Y-32575000D02*
X68825000Y-32575000D01*
X109400000Y-22800000D02*
X100000000Y-22800000D01*
X88124400Y-32480000D02*
X87311600Y-32480000D01*
X45600000Y-36565686D02*
X45600000Y-52020000D01*
X66349400Y-32575000D02*
X65200000Y-31425600D01*
X154600000Y-30625600D02*
X154600000Y-22200000D01*
X76200000Y-22400000D02*
X74000000Y-24600000D01*
X89120000Y-32480000D02*
X91800000Y-29800000D01*
X88124400Y-32480000D02*
X89120000Y-32480000D01*
X85400000Y-22400000D02*
X76200000Y-22400000D01*
X86200000Y-23200000D02*
X85400000Y-22400000D01*
X111724400Y-32680000D02*
X113720000Y-32680000D01*
X67162200Y-32575000D02*
X67863800Y-32575000D01*
X109800000Y-23200000D02*
X109400000Y-22800000D01*
X64800000Y-23000000D02*
X59165686Y-23000000D01*
X87311600Y-32480000D02*
X86200000Y-31368400D01*
X133000000Y-31950000D02*
X135250000Y-31950000D01*
%TO.N,GPIO14{slash}PIN8*%
X156562200Y-30505000D02*
X155860600Y-30505000D01*
X66349400Y-31305000D02*
X65600000Y-30555600D01*
X67162200Y-31305000D02*
X66349400Y-31305000D01*
X111724400Y-31410000D02*
X113590000Y-31410000D01*
X65600000Y-30555600D02*
X65600000Y-23200000D01*
X133000000Y-30680000D02*
X135320000Y-30680000D01*
X88826000Y-31210000D02*
X88124400Y-31210000D01*
X109600000Y-22000000D02*
X99400000Y-22000000D01*
X67162200Y-31305000D02*
X68895000Y-31305000D01*
X135320000Y-30680000D02*
X136000000Y-30000000D01*
X45200000Y-49880000D02*
X34340000Y-60740000D01*
X65600000Y-23200000D02*
X65000000Y-22600000D01*
X155860600Y-30505000D02*
X155000000Y-29644400D01*
X68895000Y-31305000D02*
X69000000Y-31200000D01*
X86600000Y-23000000D02*
X85600000Y-22000000D01*
X87311600Y-31210000D02*
X86600000Y-30498400D01*
X133680000Y-30680000D02*
X133000000Y-30680000D01*
X155000000Y-29644400D02*
X155000000Y-21800000D01*
X65000000Y-22600000D02*
X59000000Y-22600000D01*
X131600000Y-21600000D02*
X131400000Y-21400000D01*
X110200000Y-30587200D02*
X110200000Y-22600000D01*
X132187200Y-30680000D02*
X131600000Y-30092800D01*
X86600000Y-30498400D02*
X86600000Y-23000000D01*
X133000000Y-30680000D02*
X132187200Y-30680000D01*
X154200000Y-21000000D02*
X155000000Y-21800000D01*
X131400000Y-21400000D02*
X124200000Y-21400000D01*
X111724400Y-31410000D02*
X110911600Y-31410000D01*
X146250000Y-21000000D02*
X154200000Y-21000000D01*
X131600000Y-30092800D02*
X131600000Y-21600000D01*
X67975000Y-31305000D02*
X67162200Y-31305000D01*
X88124400Y-31210000D02*
X87311600Y-31210000D01*
X113590000Y-31410000D02*
X114400000Y-30600000D01*
X88826000Y-31210000D02*
X91200000Y-28836000D01*
X111724400Y-31410000D02*
X111022800Y-31410000D01*
X67162200Y-31305000D02*
X67863800Y-31305000D01*
X75400000Y-22000000D02*
X73600000Y-23800000D01*
X85600000Y-22000000D02*
X75400000Y-22000000D01*
X111022800Y-31410000D02*
X110200000Y-30587200D01*
X45200000Y-36400000D02*
X45200000Y-49880000D01*
X59000000Y-22600000D02*
X45200000Y-36400000D01*
X110200000Y-22600000D02*
X109600000Y-22000000D01*
%TO.N,GPIO18{slash}PIN12*%
X88124400Y-33750000D02*
X87311600Y-33750000D01*
X130800000Y-23800000D02*
X130000000Y-23000000D01*
X132187200Y-33220000D02*
X130800000Y-31832800D01*
X153400000Y-22800000D02*
X146200000Y-22800000D01*
X133000000Y-33220000D02*
X132187200Y-33220000D01*
X64800000Y-23600000D02*
X64600000Y-23400000D01*
X85800000Y-32238400D02*
X85800000Y-23365686D01*
X108800000Y-23600000D02*
X100600000Y-23600000D01*
X68755000Y-33845000D02*
X69000000Y-33600000D01*
X91284448Y-32115552D02*
X92600000Y-30800000D01*
X155749400Y-33045000D02*
X154200000Y-31495600D01*
X90988381Y-32411619D02*
X91284448Y-32115552D01*
X46000000Y-36731372D02*
X46000000Y-54160000D01*
X130000000Y-23000000D02*
X126000000Y-23000000D01*
X111724400Y-33950000D02*
X110911600Y-33950000D01*
X89650000Y-33750000D02*
X90988381Y-32411619D01*
X111724400Y-33950000D02*
X114050000Y-33950000D01*
X130800000Y-31832800D02*
X130800000Y-23800000D01*
X154200000Y-23600000D02*
X153400000Y-22800000D01*
X85800000Y-23365686D02*
X85234314Y-22800000D01*
X110911600Y-33950000D02*
X109400000Y-32438400D01*
X87311600Y-33750000D02*
X85800000Y-32238400D01*
X67162200Y-33845000D02*
X68755000Y-33845000D01*
X156562200Y-33045000D02*
X155749400Y-33045000D01*
X64600000Y-23400000D02*
X59331372Y-23400000D01*
X114050000Y-33950000D02*
X115400000Y-32600000D01*
X46000000Y-54160000D02*
X34340000Y-65820000D01*
X109400000Y-24200000D02*
X108800000Y-23600000D01*
X67162200Y-33845000D02*
X66349400Y-33845000D01*
X59331372Y-23400000D02*
X46000000Y-36731372D01*
X109400000Y-32438400D02*
X109400000Y-24200000D01*
X77400000Y-22800000D02*
X74600000Y-25600000D01*
X67162200Y-33845000D02*
X67975000Y-33845000D01*
X64800000Y-32295600D02*
X64800000Y-23600000D01*
X66349400Y-33845000D02*
X64800000Y-32295600D01*
X133000000Y-33220000D02*
X135380000Y-33220000D01*
X154200000Y-31495600D02*
X154200000Y-23600000D01*
X135380000Y-33220000D02*
X136000000Y-32600000D01*
X85234314Y-22800000D02*
X77400000Y-22800000D01*
X88124400Y-33750000D02*
X89650000Y-33750000D01*
%TO.N,Net-(U11-VOUT)*%
X78250000Y-37250000D02*
X78250000Y-68420600D01*
X81600000Y-25400000D02*
X82140000Y-24860000D01*
X85600000Y-70200000D02*
X80770600Y-70200000D01*
X78500000Y-37000000D02*
X78250000Y-37250000D01*
X80770600Y-70200000D02*
X80400000Y-70570600D01*
X82140000Y-24860000D02*
X83400000Y-24860000D01*
X78250000Y-68420600D02*
X80400000Y-70570600D01*
%TO.N,Net-(U10-VOUT)*%
X78849600Y-38584714D02*
X78849600Y-59990800D01*
X78849600Y-59990800D02*
X80400000Y-61541200D01*
X80541200Y-61400000D02*
X80400000Y-61541200D01*
X79500000Y-37934314D02*
X78849600Y-38584714D01*
X82070000Y-26130000D02*
X81600000Y-26600000D01*
X79500000Y-37250000D02*
X79500000Y-37934314D01*
X85600000Y-61400000D02*
X80541200Y-61400000D01*
X83400000Y-26130000D02*
X82070000Y-26130000D01*
%TO.N,Net-(U12-VOUT)*%
X96000000Y-31052942D02*
X96000000Y-32500000D01*
X92591200Y-83058800D02*
X91400000Y-83058800D01*
X96000000Y-32500000D02*
X96000000Y-79750000D01*
X91341200Y-83000000D02*
X91400000Y-83058800D01*
X91077058Y-26130000D02*
X96000000Y-31052942D01*
X86200000Y-83000000D02*
X91341200Y-83000000D01*
X88124400Y-26130000D02*
X91077058Y-26130000D01*
X93150000Y-82500000D02*
X92591200Y-83058800D01*
%TO.N,Net-(U13-VOUT)*%
X91781372Y-27400000D02*
X95250000Y-30868628D01*
X88124400Y-27400000D02*
X91781372Y-27400000D01*
X91341200Y-93000000D02*
X91400000Y-93058800D01*
X86200000Y-93000000D02*
X91341200Y-93000000D01*
X93150000Y-91750000D02*
X91841200Y-93058800D01*
X95250000Y-32500000D02*
X95250000Y-89750000D01*
X91841200Y-93058800D02*
X91400000Y-93058800D01*
X95250000Y-30868628D02*
X95250000Y-32500000D01*
%TO.N,Net-(U14-VOUT)*%
X88937200Y-28670000D02*
X89771200Y-27836000D01*
X94500000Y-32500000D02*
X94500000Y-97250000D01*
X91541200Y-103200000D02*
X91600000Y-103258800D01*
X93000000Y-102250000D02*
X91991200Y-103258800D01*
X88124400Y-28670000D02*
X88937200Y-28670000D01*
X89771200Y-27836000D02*
X91651686Y-27836000D01*
X86400000Y-103200000D02*
X91541200Y-103200000D01*
X91991200Y-103258800D02*
X91600000Y-103258800D01*
X91651686Y-27836000D02*
X94500000Y-30684314D01*
X94500000Y-30684314D02*
X94500000Y-32500000D01*
%TO.N,Net-(TP6-A)*%
X59150000Y-41200000D02*
X59150000Y-31240000D01*
X59150000Y-31240000D02*
X61625000Y-28765000D01*
X64000000Y-41200000D02*
X64400000Y-40800000D01*
X59150000Y-41200000D02*
X64000000Y-41200000D01*
X61625000Y-28765000D02*
X62437800Y-28765000D01*
%TO.N,Net-(U16-VOUT)*%
X93750000Y-30500000D02*
X93750000Y-111159200D01*
X88937200Y-29940000D02*
X90641200Y-28236000D01*
X86200000Y-112600000D02*
X91341200Y-112600000D01*
X90641200Y-28236000D02*
X91486000Y-28236000D01*
X91486000Y-28236000D02*
X93750000Y-30500000D01*
X92250400Y-112658800D02*
X91400000Y-112658800D01*
X88124400Y-29940000D02*
X88937200Y-29940000D01*
X91341200Y-112600000D02*
X91400000Y-112658800D01*
X93750000Y-111159200D02*
X92250400Y-112658800D01*
%TO.N,Net-(U7-D0)*%
X80941200Y-41000000D02*
X80200000Y-41741200D01*
X85400000Y-41000000D02*
X80941200Y-41000000D01*
X83400000Y-28670000D02*
X81930000Y-28670000D01*
X81930000Y-28670000D02*
X81600000Y-29000000D01*
%TO.N,Net-(U7-D1)*%
X85600000Y-50800000D02*
X80800000Y-50800000D01*
X83400000Y-27400000D02*
X82000000Y-27400000D01*
X80800000Y-50800000D02*
X80400000Y-51200000D01*
X82000000Y-27400000D02*
X81600000Y-27800000D01*
X80750000Y-37250000D02*
X79249600Y-38750400D01*
X79249600Y-38750400D02*
X79249600Y-50049600D01*
X79249600Y-50049600D02*
X80400000Y-51200000D01*
%TO.N,Net-(U17-D5)*%
X109600000Y-92600000D02*
X109741200Y-92458800D01*
X118500000Y-32720099D02*
X118500000Y-90000000D01*
X114608800Y-92250000D02*
X114400000Y-92458800D01*
X116250000Y-92250000D02*
X114608800Y-92250000D01*
X111724400Y-27600000D02*
X113379901Y-27600000D01*
X109400000Y-92600000D02*
X109600000Y-92600000D01*
X109741200Y-92458800D02*
X114400000Y-92458800D01*
X113379901Y-27600000D02*
X118500000Y-32720099D01*
%TO.N,Net-(U17-D0)*%
X106187200Y-28870000D02*
X105250000Y-29807200D01*
X107000000Y-28870000D02*
X106187200Y-28870000D01*
X108800000Y-40800000D02*
X103800000Y-40800000D01*
X108800000Y-38550000D02*
X108800000Y-40800000D01*
X105250000Y-29807200D02*
X105250000Y-30750000D01*
X103800000Y-40800000D02*
X103600000Y-41000000D01*
X105250000Y-34500000D02*
X105250000Y-35000000D01*
X105250000Y-35000000D02*
X108800000Y-38550000D01*
%TO.N,Net-(U17-D1)*%
X107701600Y-27600000D02*
X106298400Y-27600000D01*
X103658800Y-50600000D02*
X103600000Y-50541200D01*
X107000000Y-27600000D02*
X107701600Y-27600000D01*
X108800000Y-50600000D02*
X103658800Y-50600000D01*
X106298400Y-27600000D02*
X104738780Y-29159620D01*
X102500000Y-37750000D02*
X102500000Y-49441200D01*
X104500000Y-35750000D02*
X102500000Y-37750000D01*
X104738780Y-29159620D02*
X104738780Y-29493107D01*
X102500000Y-49441200D02*
X103600000Y-50541200D01*
%TO.N,Net-(U17-D3)*%
X107812800Y-25060000D02*
X106298400Y-25060000D01*
X103500000Y-27858400D02*
X103500000Y-28750000D01*
X103500000Y-33500000D02*
X101700000Y-35300000D01*
X108600000Y-71000000D02*
X103458800Y-71000000D01*
X101700000Y-69241200D02*
X103400000Y-70941200D01*
X106298400Y-25060000D02*
X103500000Y-27858400D01*
X103458800Y-71000000D02*
X103400000Y-70941200D01*
X101700000Y-35300000D02*
X101700000Y-69241200D01*
X107000000Y-25060000D02*
X107812800Y-25060000D01*
%TO.N,Net-(U17-D6)*%
X117750000Y-32535785D02*
X117750000Y-99500000D01*
X116250000Y-101000000D02*
X114991200Y-102258800D01*
X109400000Y-102400000D02*
X114458800Y-102400000D01*
X111724400Y-28870000D02*
X114084215Y-28870000D01*
X114084215Y-28870000D02*
X117750000Y-32535785D01*
X114458800Y-102400000D02*
X114600000Y-102258800D01*
X114991200Y-102258800D02*
X114600000Y-102258800D01*
%TO.N,Net-(U17-D7)*%
X111724400Y-30140000D02*
X111864400Y-30000000D01*
X117000000Y-32351471D02*
X117000000Y-111500000D01*
X116100000Y-112400000D02*
X114600000Y-112400000D01*
X114648529Y-30000000D02*
X117000000Y-32351471D01*
X111864400Y-30000000D02*
X114648529Y-30000000D01*
X117000000Y-111500000D02*
X116100000Y-112400000D01*
X109400000Y-112400000D02*
X114600000Y-112400000D01*
%TO.N,Net-(U17-D4)*%
X116250000Y-83250000D02*
X114408800Y-83250000D01*
X114058800Y-83600000D02*
X114400000Y-83258800D01*
X114408800Y-83250000D02*
X114400000Y-83258800D01*
X113016600Y-26330000D02*
X111724400Y-26330000D01*
X119250000Y-32563400D02*
X119250000Y-79250000D01*
X113016600Y-26330000D02*
X119250000Y-32563400D01*
X109400000Y-83600000D02*
X114058800Y-83600000D01*
%TO.N,Net-(U17-D2)*%
X103750000Y-35000000D02*
X102100000Y-36650000D01*
X102100000Y-58241200D02*
X103600000Y-59741200D01*
X108800000Y-59600000D02*
X103741200Y-59600000D01*
X107000000Y-26330000D02*
X106420000Y-26330000D01*
X103741200Y-59600000D02*
X103600000Y-59741200D01*
X106420000Y-26330000D02*
X104500000Y-28250000D01*
X102100000Y-36650000D02*
X102100000Y-58241200D01*
%TO.N,Net-(U27-D7)*%
X130000000Y-111800000D02*
X135058800Y-111800000D01*
X135058800Y-111800000D02*
X135200000Y-111658800D01*
X138250000Y-31401471D02*
X138250000Y-109459200D01*
X133000000Y-29410000D02*
X133010000Y-29400000D01*
X138250000Y-109459200D02*
X136050400Y-111658800D01*
X136050400Y-111658800D02*
X135200000Y-111658800D01*
X136248529Y-29400000D02*
X138250000Y-31401471D01*
X133010000Y-29400000D02*
X136248529Y-29400000D01*
%TO.N,Net-(U27-D1)*%
X130400000Y-50200000D02*
X125229400Y-50200000D01*
X128275600Y-26870000D02*
X127462800Y-26870000D01*
X125229400Y-50200000D02*
X125200000Y-50170600D01*
X124249600Y-49220200D02*
X125200000Y-50170600D01*
X127462800Y-26870000D02*
X124249600Y-30083200D01*
X124249600Y-30083200D02*
X124249600Y-49220200D01*
%TO.N,Net-(U27-D4)*%
X130600000Y-82600000D02*
X135629400Y-82600000D01*
X135870600Y-82500000D02*
X135800000Y-82429400D01*
X137650000Y-82500000D02*
X135870600Y-82500000D01*
X134145587Y-25600000D02*
X140500000Y-31954413D01*
X133000000Y-25600000D02*
X134145587Y-25600000D01*
X135629400Y-82600000D02*
X135800000Y-82429400D01*
X140500000Y-31954413D02*
X140500000Y-80500000D01*
%TO.N,Net-(U27-D5)*%
X130200000Y-92600000D02*
X135258800Y-92600000D01*
X133000000Y-26870000D02*
X134849901Y-26870000D01*
X135441200Y-92500000D02*
X135400000Y-92458800D01*
X139750000Y-31770099D02*
X139750000Y-90500000D01*
X137250000Y-92500000D02*
X135441200Y-92500000D01*
X135258800Y-92600000D02*
X135400000Y-92458800D01*
X134849901Y-26870000D02*
X139750000Y-31770099D01*
%TO.N,Net-(U27-D2)*%
X130400000Y-60000000D02*
X125200000Y-60000000D01*
X123750000Y-58550000D02*
X125200000Y-60000000D01*
X128275600Y-25600000D02*
X127462800Y-25600000D01*
X123750000Y-29312800D02*
X123750000Y-58550000D01*
X127462800Y-25600000D02*
X123750000Y-29312800D01*
%TO.N,Net-(U27-D6)*%
X136391200Y-101858800D02*
X135200000Y-101858800D01*
X130000000Y-102200000D02*
X134858800Y-102200000D01*
X137000000Y-101250000D02*
X136391200Y-101858800D01*
X134858800Y-102200000D02*
X135200000Y-101858800D01*
X139000000Y-31585785D02*
X139000000Y-99250000D01*
X135554215Y-28140000D02*
X139000000Y-31585785D01*
X133000000Y-28140000D02*
X135554215Y-28140000D01*
%TO.N,Net-(U27-D0)*%
X130400000Y-29451600D02*
X130400000Y-40000000D01*
X128275600Y-28140000D02*
X129088400Y-28140000D01*
X129088400Y-28140000D02*
X130400000Y-29451600D01*
X130400000Y-40000000D02*
X125341200Y-40000000D01*
X125341200Y-40000000D02*
X125200000Y-40141200D01*
%TO.N,Net-(U27-D3)*%
X127462800Y-24330000D02*
X123350000Y-28442800D01*
X123350000Y-67550000D02*
X125200000Y-69400000D01*
X130400000Y-69400000D02*
X125200000Y-69400000D01*
X128275600Y-24330000D02*
X127462800Y-24330000D01*
X123350000Y-28442800D02*
X123350000Y-67550000D01*
%TO.N,Net-(U37-D0)*%
X148741200Y-39400000D02*
X148600000Y-39541200D01*
X153800000Y-39400000D02*
X148741200Y-39400000D01*
X151837800Y-27965000D02*
X151025000Y-27965000D01*
X151025000Y-27965000D02*
X148600000Y-30390000D01*
X148600000Y-30390000D02*
X148600000Y-39541200D01*
%TO.N,Net-(U37-D5)*%
X164000000Y-33320000D02*
X164000000Y-91000000D01*
X159858800Y-93200000D02*
X160000000Y-93058800D01*
X154800000Y-93200000D02*
X159858800Y-93200000D01*
X156562200Y-26695000D02*
X157375000Y-26695000D01*
X157375000Y-26695000D02*
X164000000Y-33320000D01*
X161341200Y-93058800D02*
X160000000Y-93058800D01*
X161900000Y-92500000D02*
X161341200Y-93058800D01*
%TO.N,Net-(U37-D1)*%
X147649600Y-48220200D02*
X148600000Y-49170600D01*
X153800000Y-49200000D02*
X148629400Y-49200000D01*
X147649600Y-30070400D02*
X147649600Y-48220200D01*
X151837800Y-26695000D02*
X151025000Y-26695000D01*
X151025000Y-26695000D02*
X147649600Y-30070400D01*
X148629400Y-49200000D02*
X148600000Y-49170600D01*
%TO.N,Net-(U37-D2)*%
X151837800Y-25425000D02*
X151025000Y-25425000D01*
X147249600Y-57990800D02*
X148600000Y-59341200D01*
X148741200Y-59200000D02*
X148600000Y-59341200D01*
X151025000Y-25425000D02*
X147249600Y-29200400D01*
X153800000Y-59200000D02*
X148741200Y-59200000D01*
X147249600Y-29200400D02*
X147249600Y-57990800D01*
%TO.N,Net-(U37-D6)*%
X161191200Y-103058800D02*
X160000000Y-103058800D01*
X154800000Y-103200000D02*
X159858800Y-103200000D01*
X157375000Y-27965000D02*
X163250000Y-33840000D01*
X163250000Y-33840000D02*
X163250000Y-101000000D01*
X159858800Y-103200000D02*
X160000000Y-103058800D01*
X161750000Y-102500000D02*
X161191200Y-103058800D01*
X156562200Y-27965000D02*
X157375000Y-27965000D01*
%TO.N,Net-(U37-D3)*%
X148800000Y-68800000D02*
X148600000Y-69000000D01*
X146500000Y-66900000D02*
X148600000Y-69000000D01*
X151025000Y-24155000D02*
X146500000Y-28680000D01*
X151837800Y-24155000D02*
X151025000Y-24155000D01*
X146500000Y-28680000D02*
X146500000Y-66900000D01*
X153800000Y-68800000D02*
X148800000Y-68800000D01*
%TO.N,Net-(U37-D4)*%
X157375000Y-25425000D02*
X164750000Y-32800000D01*
X164750000Y-32800000D02*
X164750000Y-80000000D01*
X154600000Y-83100000D02*
X159758800Y-83100000D01*
X161750000Y-83000000D02*
X159858800Y-83000000D01*
X159858800Y-83000000D02*
X159800000Y-83058800D01*
X159758800Y-83100000D02*
X159800000Y-83058800D01*
X156562200Y-25425000D02*
X157375000Y-25425000D01*
%TO.N,Net-(U37-D7)*%
X156562200Y-29235000D02*
X157375000Y-29235000D01*
X162500000Y-34360000D02*
X162500000Y-111500000D01*
X159858800Y-112800000D02*
X160000000Y-112658800D01*
X162500000Y-111500000D02*
X161341200Y-112658800D01*
X154800000Y-112800000D02*
X159858800Y-112800000D01*
X161341200Y-112658800D02*
X160000000Y-112658800D01*
X157375000Y-29235000D02*
X162500000Y-34360000D01*
D28*
%TO.N,5V Board*%
X28460000Y-39250000D02*
X28460000Y-27402500D01*
X34340000Y-53120000D02*
X28460000Y-47240000D01*
X28460000Y-47240000D02*
X28460000Y-39250000D01*
X28460000Y-27402500D02*
X26300000Y-25242500D01*
D27*
%TO.N,GND2*%
X155165000Y-101700000D02*
X155865000Y-101000000D01*
X108602584Y-72500000D02*
X108600000Y-72500000D01*
X62950000Y-72400000D02*
X59000000Y-72400000D01*
X65400000Y-89800000D02*
X67370000Y-89800000D01*
X153800000Y-60700000D02*
X152735000Y-60700000D01*
X86900000Y-101200000D02*
X91600000Y-101200000D01*
X155865000Y-101000000D02*
X160000000Y-101000000D01*
X109958800Y-110341200D02*
X114600000Y-110341200D01*
X131265000Y-90400000D02*
X135400000Y-90400000D01*
X108800000Y-52100000D02*
X108300000Y-52600000D01*
X130000000Y-110300000D02*
X130365000Y-110300000D01*
X111000000Y-80865000D02*
X110665000Y-81200000D01*
X109965000Y-71137584D02*
X108602584Y-72500000D01*
X58943800Y-43465000D02*
X59150000Y-43258800D01*
X85600000Y-62900000D02*
X84535000Y-62900000D01*
X130565000Y-91100000D02*
X131265000Y-90400000D01*
X129335000Y-41500000D02*
X128635000Y-42200000D01*
X130400000Y-61500000D02*
X129841200Y-62058800D01*
X152035000Y-41600000D02*
X148600000Y-41600000D01*
X109400000Y-100900000D02*
X109765000Y-100900000D01*
X64050000Y-42300000D02*
X63091200Y-43258800D01*
X86200000Y-91500000D02*
X86700000Y-91000000D01*
X108600000Y-72500000D02*
X108100000Y-73000000D01*
X153800000Y-40900000D02*
X152735000Y-40900000D01*
X68970000Y-98800000D02*
X70600000Y-98800000D01*
X64200000Y-71500000D02*
X63850000Y-71500000D01*
X108800000Y-61100000D02*
X107735000Y-61100000D01*
X83750000Y-43800000D02*
X80200000Y-43800000D01*
X68770000Y-88400000D02*
X70600000Y-88400000D01*
X86700000Y-81000000D02*
X91400000Y-81000000D01*
X68364578Y-110300000D02*
X70064578Y-108600000D01*
X62950000Y-62800000D02*
X59000000Y-62800000D01*
X85600000Y-71700000D02*
X85250000Y-71700000D01*
X65565000Y-43300256D02*
X64564744Y-42300000D01*
X109965000Y-43115000D02*
X109965000Y-51285000D01*
X64400000Y-52100000D02*
X64750000Y-52100000D01*
X130400000Y-51700000D02*
X129870600Y-52229400D01*
X107735000Y-61100000D02*
X107035000Y-61800000D01*
X64750000Y-52100000D02*
X65565000Y-51285000D01*
X130200000Y-91100000D02*
X130565000Y-91100000D01*
X107035000Y-61800000D02*
X103600000Y-61800000D01*
X60700000Y-52100000D02*
X59800000Y-53000000D01*
X84535000Y-62900000D02*
X83835000Y-63600000D01*
X154800000Y-91700000D02*
X155165000Y-91700000D01*
X108800000Y-42300000D02*
X109150000Y-42300000D01*
X65565000Y-51285000D02*
X65565000Y-43300256D01*
X109400000Y-110900000D02*
X109958800Y-110341200D01*
X85250000Y-52300000D02*
X84291200Y-53258800D01*
X154800000Y-101700000D02*
X155165000Y-101700000D01*
X131065000Y-109600000D02*
X135200000Y-109600000D01*
X108950000Y-72500000D02*
X111000000Y-74550000D01*
X59800000Y-53000000D02*
X59200000Y-53000000D01*
X110000000Y-60250000D02*
X109150000Y-61100000D01*
X109150000Y-61100000D02*
X108800000Y-61100000D01*
X110665000Y-81200000D02*
X114400000Y-81200000D01*
X84291200Y-53258800D02*
X80400000Y-53258800D01*
X84320600Y-72629400D02*
X80400000Y-72629400D01*
X65200000Y-110300000D02*
X68364578Y-110300000D01*
X109400000Y-91100000D02*
X109765000Y-91100000D01*
X86200000Y-111100000D02*
X86700000Y-110600000D01*
X152691200Y-71058800D02*
X148600000Y-71058800D01*
X110465000Y-90400000D02*
X114400000Y-90400000D01*
X64200000Y-61900000D02*
X63850000Y-61900000D01*
X67370000Y-89800000D02*
X68770000Y-88400000D01*
X85050000Y-42500000D02*
X83750000Y-43800000D01*
X109765000Y-91100000D02*
X110465000Y-90400000D01*
X85600000Y-52300000D02*
X85250000Y-52300000D01*
X107691200Y-43058800D02*
X103600000Y-43058800D01*
X152735000Y-60700000D02*
X152035000Y-61400000D01*
X109150000Y-42300000D02*
X109965000Y-43115000D01*
X67470000Y-100300000D02*
X68970000Y-98800000D01*
X130600000Y-81100000D02*
X130965000Y-81100000D01*
X155200000Y-81000000D02*
X159800000Y-81000000D01*
X130365000Y-100700000D02*
X131265000Y-99800000D01*
X109150000Y-61100000D02*
X109965000Y-61915000D01*
X152035000Y-61400000D02*
X148600000Y-61400000D01*
X86400000Y-101700000D02*
X86900000Y-101200000D01*
X108100000Y-73000000D02*
X103400000Y-73000000D01*
X153450000Y-70300000D02*
X152691200Y-71058800D01*
X154600000Y-81600000D02*
X155200000Y-81000000D01*
X86700000Y-91000000D02*
X91400000Y-91000000D01*
X155165000Y-91700000D02*
X155865000Y-91000000D01*
X109400000Y-82100000D02*
X109765000Y-82100000D01*
X109765000Y-100900000D02*
X110465000Y-100200000D01*
X108600000Y-72500000D02*
X108950000Y-72500000D01*
X108450000Y-42300000D02*
X107691200Y-43058800D01*
X109965000Y-51285000D02*
X109150000Y-52100000D01*
X130965000Y-81100000D02*
X131694400Y-80370600D01*
X85250000Y-71700000D02*
X84320600Y-72629400D01*
X65350000Y-80600000D02*
X69064578Y-80600000D01*
X129870600Y-52229400D02*
X125200000Y-52229400D01*
X130365000Y-110300000D02*
X131065000Y-109600000D01*
X130400000Y-70900000D02*
X129841200Y-71458800D01*
X155865000Y-91000000D02*
X160000000Y-91000000D01*
X70464578Y-79200000D02*
X70600000Y-79200000D01*
X131265000Y-99800000D02*
X135200000Y-99800000D01*
X69064578Y-80600000D02*
X70464578Y-79200000D01*
X109150000Y-52100000D02*
X110000000Y-52950000D01*
X111000000Y-74550000D02*
X111000000Y-80865000D01*
X63850000Y-71500000D02*
X62950000Y-72400000D01*
X65350000Y-100300000D02*
X67470000Y-100300000D01*
X63850000Y-61900000D02*
X62950000Y-62800000D01*
X64564744Y-42300000D02*
X64400000Y-42300000D01*
X152735000Y-40900000D02*
X152035000Y-41600000D01*
X128635000Y-42200000D02*
X125200000Y-42200000D01*
X64400000Y-52100000D02*
X60700000Y-52100000D01*
X86700000Y-110600000D02*
X91400000Y-110600000D01*
X64400000Y-42300000D02*
X64050000Y-42300000D01*
X153270600Y-51229400D02*
X148600000Y-51229400D01*
X109965000Y-61915000D02*
X109965000Y-71137584D01*
X155165000Y-111300000D02*
X155865000Y-110600000D01*
X109150000Y-52100000D02*
X108800000Y-52100000D01*
X129841200Y-62058800D02*
X125200000Y-62058800D01*
X110000000Y-52950000D02*
X110000000Y-60250000D01*
X130400000Y-41500000D02*
X129335000Y-41500000D01*
X130000000Y-100700000D02*
X130365000Y-100700000D01*
X129841200Y-71458800D02*
X125200000Y-71458800D01*
X109765000Y-82100000D02*
X110665000Y-81200000D01*
X108800000Y-42300000D02*
X108450000Y-42300000D01*
X154800000Y-111300000D02*
X155165000Y-111300000D01*
X83835000Y-63600000D02*
X80400000Y-63600000D01*
X155865000Y-110600000D02*
X160000000Y-110600000D01*
X70064578Y-108600000D02*
X70200000Y-108600000D01*
X86200000Y-81500000D02*
X86700000Y-81000000D01*
X110465000Y-100200000D02*
X114600000Y-100200000D01*
X64750000Y-42300000D02*
X64400000Y-42300000D01*
X85400000Y-42500000D02*
X85050000Y-42500000D01*
X63091200Y-43258800D02*
X59150000Y-43258800D01*
X153800000Y-70300000D02*
X153450000Y-70300000D01*
X153800000Y-50700000D02*
X153270600Y-51229400D01*
X108300000Y-52600000D02*
X103600000Y-52600000D01*
X131694400Y-80370600D02*
X135800000Y-80370600D01*
%TD*%
M02*
